<svg width="24" height="25" viewBox="0 0 24 25" fill="none" xmlns="http://www.w3.org/2000/svg">
<path d="M20.2495 5.75L3.74951 5.75" stroke="#99CEE9" stroke-width="1.5" stroke-linecap="round" stroke-linejoin="round"/>
<path d="M9.75049 10.25V16.25" stroke="#99CEE9" stroke-width="1.5" stroke-linecap="round" stroke-linejoin="round"/>
<path d="M14.25 10.25V16.25" stroke="#99CEE9" stroke-width="1.5" stroke-linecap="round" stroke-linejoin="round"/>
<path d="M18.7505 5.75V20C18.7505 20.1989 18.6715 20.3897 18.5308 20.5303C18.3902 20.671 18.1994 20.75 18.0005 20.75H6.00049C5.80158 20.75 5.61081 20.671 5.47016 20.5303C5.32951 20.3897 5.25049 20.1989 5.25049 20V5.75" stroke="#99CEE9" stroke-width="1.5" stroke-linecap="round" stroke-linejoin="round"/>
<path d="M15.75 5.75V4.25C15.75 3.85218 15.592 3.47064 15.3107 3.18934C15.0294 2.90804 14.6478 2.75 14.25 2.75H9.75C9.35218 2.75 8.97064 2.90804 8.68934 3.18934C8.40804 3.47064 8.25 3.85218 8.25 4.25V5.75" stroke="#99CEE9" stroke-width="1.5" stroke-linecap="round" stroke-linejoin="round"/>
</svg>
