<svg width="54" height="54" viewBox="0 0 54 54" fill="none" xmlns="http://www.w3.org/2000/svg">
<path d="M0 4C0 1.79086 1.79086 0 4 0H50C52.2091 0 54 1.79086 54 4V50C54 52.2091 52.2091 54 50 54H4C1.79086 54 0 52.2091 0 50V4Z" fill="#E0EB65"/>
<mask id="path-2-inside-1_6247_22594" fill="white">
<path fill-rule="evenodd" clip-rule="evenodd" d="M23.2941 49.2353C32.8454 49.2353 40.5882 41.4925 40.5882 31.9412C40.5882 22.3899 32.8454 14.6471 23.2941 14.6471C13.7428 14.6471 6 22.3899 6 31.9412C6 41.4925 13.7428 49.2353 23.2941 49.2353ZM23.2941 41.8235C28.752 41.8235 33.1765 37.3991 33.1765 31.9412C33.1765 26.4833 28.752 22.0588 23.2941 22.0588C17.8362 22.0588 13.4118 26.4833 13.4118 31.9412C13.4118 37.3991 17.8362 41.8235 23.2941 41.8235Z"/>
</mask>
<path fill-rule="evenodd" clip-rule="evenodd" d="M23.2941 49.2353C32.8454 49.2353 40.5882 41.4925 40.5882 31.9412C40.5882 22.3899 32.8454 14.6471 23.2941 14.6471C13.7428 14.6471 6 22.3899 6 31.9412C6 41.4925 13.7428 49.2353 23.2941 49.2353ZM23.2941 41.8235C28.752 41.8235 33.1765 37.3991 33.1765 31.9412C33.1765 26.4833 28.752 22.0588 23.2941 22.0588C17.8362 22.0588 13.4118 26.4833 13.4118 31.9412C13.4118 37.3991 17.8362 41.8235 23.2941 41.8235Z" fill="white"/>
<path d="M38.8588 31.9412C38.8588 40.5373 31.8903 47.5059 23.2941 47.5059V50.9647C33.8005 50.9647 42.3176 42.4476 42.3176 31.9412H38.8588ZM23.2941 16.3765C31.8903 16.3765 38.8588 23.345 38.8588 31.9412H42.3176C42.3176 21.4348 33.8005 12.9177 23.2941 12.9177V16.3765ZM7.72941 31.9412C7.72941 23.345 14.698 16.3765 23.2941 16.3765V12.9177C12.7877 12.9177 4.27059 21.4348 4.27059 31.9412H7.72941ZM23.2941 47.5059C14.698 47.5059 7.72941 40.5373 7.72941 31.9412H4.27059C4.27059 42.4476 12.7877 50.9647 23.2941 50.9647V47.5059ZM31.4471 31.9412C31.4471 36.4439 27.7969 40.0941 23.2941 40.0941V43.5529C29.7071 43.5529 34.9059 38.3542 34.9059 31.9412H31.4471ZM23.2941 23.7882C27.7969 23.7882 31.4471 27.4384 31.4471 31.9412H34.9059C34.9059 25.5282 29.7071 20.3294 23.2941 20.3294V23.7882ZM15.1412 31.9412C15.1412 27.4384 18.7914 23.7882 23.2941 23.7882V20.3294C16.8811 20.3294 11.6824 25.5282 11.6824 31.9412H15.1412ZM23.2941 40.0941C18.7914 40.0941 15.1412 36.4439 15.1412 31.9412H11.6824C11.6824 38.3542 16.8811 43.5529 23.2941 43.5529V40.0941Z" fill="#0651A7" mask="url(#path-2-inside-1_6247_22594)"/>
<path fill-rule="evenodd" clip-rule="evenodd" d="M23.294 41.8235C28.7518 41.8235 33.1763 37.3991 33.1763 31.9412C33.1763 26.4833 28.7518 22.0588 23.294 22.0588C17.8361 22.0588 13.4116 26.4833 13.4116 31.9412C13.4116 37.3991 17.8361 41.8235 23.294 41.8235ZM23.2939 40.5882C28.0695 40.5882 31.9409 36.7168 31.9409 31.9412C31.9409 27.1655 28.0695 23.2941 23.2939 23.2941C18.5182 23.2941 14.6468 27.1655 14.6468 31.9412C14.6468 36.7168 18.5182 40.5882 23.2939 40.5882Z" fill="#0651A7"/>
<circle cx="36.2647" cy="16.5" r="8.39273" fill="white" stroke="#0651A7" stroke-width="1.74394"/>
<path d="M36.2646 11.0502V16.5L39.5345 19.7699" stroke="#0651A7" stroke-width="1.74394"/>
</svg>
