<svg width="54" height="54" viewBox="0 0 54 54" fill="none" xmlns="http://www.w3.org/2000/svg">
<path d="M0 4C0 1.79086 1.79086 0 4 0H50C52.2091 0 54 1.79086 54 4V50C54 52.2091 52.2091 54 50 54H4C1.79086 54 0 52.2091 0 50V4Z" fill="#E0EB65"/>
<g clip-path="url(#clip0_6247_4134)">
<path fill-rule="evenodd" clip-rule="evenodd" d="M-3.24472 31.9165C-3.24472 31.9165 -1.68802 30.0282 1.37576 29.4757C1.37576 29.4757 0.0513246 28.4289 -0.159148 26.8558C-0.333756 25.5509 0.864998 23.7109 0.864998 23.7109C0.864998 23.7109 -0.0965831 19.1526 3.58429 16.5902C3.58429 16.5902 3.99759 15.0116 6.41041 14.6496C8.82231 14.2877 9.74171 15.6096 9.74171 15.6096C9.74171 15.6096 13.377 16.2169 14.1996 20.3256C14.1996 20.3256 17.7321 22.782 16.0118 27.1525C16.0118 27.1525 17.4549 26.8423 18.7641 27.2921C18.7641 27.2921 20.3303 26.1451 23.6792 26.947C23.6792 26.947 25.7117 24.9176 28.9507 25.7734C28.9507 25.7734 29.7916 24.1763 31.9431 23.6146C31.9431 23.6146 33.1013 22.0539 34.9438 22.3932C34.9438 22.3932 34.9839 21.5287 35.874 20.5892C36.7633 19.6502 37.3828 19.0202 37.3777 18.3959C37.3725 17.7716 37.2196 16.3471 39.3691 16.0595C41.2116 15.813 41.7969 16.9842 41.7969 16.9842C41.7969 16.9842 42.8996 16.1725 44.128 16.0081C45.3551 15.8439 45.8452 16.2858 45.8452 16.2858C45.8452 16.2858 46.8115 15.9229 47.9865 16.8193C49.1611 17.7166 48.6879 18.5617 48.6879 18.5617C48.6879 18.5617 49.0463 18.9046 49.036 19.4134C49.0267 19.9226 48.9519 20.2455 48.6211 20.6802C48.2876 21.1157 47.6159 21.6346 47.6159 21.6346C47.6159 21.6346 47.2196 23.0547 46.6005 24.27C45.9824 25.4856 45.3557 26.937 41.8497 27.8744C41.8497 27.8744 41.7019 30.8624 40.0175 31.9865C40.0175 31.9865 39.9117 35.8672 35.317 36.5604C35.317 36.5604 34.3822 40.6691 29.7387 41.2904C29.7387 41.2904 29.3464 42.4366 28.5502 43.2068C28.5502 43.2068 29.1807 45.5837 27.8181 47.3672C27.8181 47.3672 28.6611 49.2852 27.2841 52.711C27.2841 52.711 29.0907 53.9534 29.307 57.909C29.307 57.909 33.5573 59.6057 34.5672 64.8217C34.5672 64.8217 35.4605 65.9521 35.6924 67.0922C35.6924 67.0922 40.044 68.3854 38.9028 74.7484C38.9028 74.7484 40.0477 77.1731 38.5548 80.029C38.5548 80.029 38.7323 80.4735 38.7345 80.7858C38.7345 80.7858 40.998 79.3113 43.2778 79.1233C45.5578 78.9362 46.2098 79.4343 46.6502 79.805C47.0897 80.1757 47.7149 80.7558 47.8681 81.322C47.8681 81.322 48.0826 81.1753 48.362 81.8026C48.6412 82.4289 48.8949 83.45 48.4708 84.3659C48.0467 85.2818 47.3045 85.5765 46.2689 86.3009C45.233 87.0258 42.427 89.1199 40.0981 91.2669C40.0981 91.2669 38.6397 92.6336 38.3153 92.8337C37.9907 93.033 36.7704 93.5474 36.0794 93.6399C35.3894 93.7322 33.8795 93.5434 33.2933 92.9581C32.707 92.3729 32.208 91.8534 32.1792 90.7635C32.1514 89.6739 32.0067 87.4279 31.9883 87.0008C31.9698 86.5737 31.5734 85.0648 30.5548 83.8727C30.5548 83.8727 27.0038 83.6058 25.8942 80.2771C25.8942 80.2771 22.2662 78.8494 22.6839 74.3794L22.447 73.787C22.447 73.787 18.9148 72.775 17.9742 70.1276C17.9742 70.1276 15.9654 69.4202 14.6264 67.2943C14.6264 67.2943 13.3225 69.2262 11.7238 69.831C11.7238 69.831 10.8844 73.7711 6.47159 74.9483C6.47159 74.9483 4.62295 77.7735 1.36143 78.2099C-1.13306 78.5437 -2.99061 77.5026 -2.99061 77.5026C-2.99061 77.5026 -4.93677 78.4277 -6.69508 77.8425C-6.69508 77.8425 -6.58983 78.3363 -6.49241 79.0644C-6.39474 79.7944 -5.69097 84.465 -10.2955 85.0811C-12.8285 85.4201 -15.1243 84.321 -15.6838 80.1394C-16.2435 75.9564 -15.8929 74.7766 -16.0779 73.3946C-16.2626 72.0141 -16.4705 71.9239 -16.6399 70.6579C-16.8093 69.3918 -16.8181 66.6981 -13.9016 66.3079C-11.9831 66.0512 -11.9722 66.7143 -11.4737 66.6476C-10.9752 66.5809 -10.9757 65.9947 -10.2416 65.3499C-9.50711 64.704 -8.78315 63.9831 -6.59659 63.6905C-5.67513 63.5672 -5.34811 63.6793 -5.34811 63.6793C-5.34811 63.6793 -4.18474 62.157 -1.76474 61.5594C-1.76474 61.5594 -1.97262 60.2986 -0.297964 57.3409C-0.297964 57.3409 -0.495612 56.1565 -0.13585 54.4671C-0.13585 54.4671 -1.13476 52.3745 -0.96445 50.3205C-0.96445 50.3205 -1.82693 49.4206 -2.09085 48.323C-2.09085 48.323 -2.53281 49.9837 -2.93129 50.5053C-2.93129 50.5053 -2.27048 52.5265 -0.731434 54.3905C-0.731434 54.3905 -1.42142 56.2403 -2.80246 56.425C-4.18395 56.6099 -4.77527 55.9866 -4.77527 55.9866C-4.77527 55.9866 -4.75474 56.1401 -4.61666 56.5899C-4.47813 57.0396 -4.26844 57.4426 -4.18641 58.0556C-4.10426 58.6696 -4.29428 61.6241 -6.74253 61.1322C-6.74253 61.1322 -7.81862 62.7211 -9.43626 61.7268C-9.43626 61.7268 -10.7742 61.9445 -11.5216 61.0296C-11.5216 61.0296 -13.492 61.1733 -14.3811 56.8815C-14.933 54.2212 -12.9005 51.6056 -12.9005 51.6056L-13.241 50.5182C-13.241 50.5182 -15.1456 49.1327 -15.5718 45.9472C-15.9979 42.7627 -13.8007 40.7891 -13.8007 40.7891C-13.8007 40.7891 -13.2216 38.4071 -11.0295 36.9809C-11.03 36.981 -9.49569 31.7111 -3.24472 31.9165Z" fill="#0651A7"/>
<path fill-rule="evenodd" clip-rule="evenodd" d="M2.3769 22.726C2.3769 22.726 1.74638 20.5714 3.19093 18.7128C4.54652 16.9689 5.90134 17.0539 6.06746 16.9901C6.23399 16.9258 6.20998 16.7463 5.92113 16.7326C5.63281 16.7192 5.36705 16.6769 5.34993 16.5489C5.3328 16.4209 5.83417 15.8851 6.75471 15.7619C7.67525 15.6388 8.22251 15.8587 8.258 16.1239C8.29349 16.3892 8.13347 16.3327 8.12155 16.4377C8.10935 16.5441 8.22255 16.6069 8.37893 16.6114C8.53643 16.6173 9.71816 16.6928 10.5135 17.1859C11.3082 17.6786 12.5519 18.6054 12.7607 20.1659C12.8052 20.4984 12.8718 20.5939 12.7882 20.657C12.705 20.7196 12.475 20.7503 12.7137 20.979C12.9525 21.2076 13.2227 21.2758 13.5408 21.5192C13.86 21.7631 14.8945 22.4843 15.1777 24.217C15.461 25.9493 14.9184 27.338 14.1514 27.6421C14.1514 27.6421 14.2735 27.775 14.4387 28.0389C14.6049 28.3037 14.722 28.601 14.6371 28.7422C14.5517 28.8839 14.3975 29.0862 14.2764 29.1544C14.1552 29.2225 13.9605 29.3269 13.9776 29.4545C13.9947 29.5825 14.5279 29.4856 14.8262 29.1851C15.1254 28.8845 15.227 28.4801 15.227 28.4801C15.227 28.4801 15.48 28.4203 15.7895 28.4048C16.0999 28.3892 18.3587 28.1389 20.3043 29.2589C22.2511 30.3782 23.6057 31.5513 23.7631 32.7283C23.8145 33.1122 24.0248 33.3182 23.3197 33.3087C22.6159 33.2986 19.9314 33.4756 17.2705 33.8316C14.6109 34.1874 9.00974 35.1451 2.75519 36.6593C2.75519 36.6593 1.32998 33.6986 -1.96244 32.7858C-1.96244 32.7858 -0.542987 31.0853 1.683 30.7875C2.68098 30.6539 2.85843 30.8124 3.23357 30.8925C3.60824 30.9726 3.93625 31.085 4.01137 30.8668C4.08603 30.6486 3.7364 30.5651 3.65653 30.5503C3.57607 30.5346 3.28636 30.3133 3.63563 30.006C3.98536 29.6986 4.17125 29.7262 3.73099 29.5509C3.29106 29.3747 1.599 28.7944 1.31488 26.6709C1.08213 24.9314 1.89663 24.0157 2.18557 23.6386C2.47352 23.2611 3.09706 22.8657 3.42609 22.7952C3.75565 22.7251 3.85435 22.2951 3.27622 22.4513C2.69698 22.6062 2.55509 22.6748 2.3769 22.726Z" fill="white"/>
<path fill-rule="evenodd" clip-rule="evenodd" d="M-9.21535 36.7249C-9.21535 36.7249 -8.17658 33.9821 -4.7481 33.5234C-1.32055 33.0648 1.68911 35.3183 2.1888 39.0528C2.75705 43.2998 -0.779065 45.2826 -0.779065 45.2826C-0.779065 45.2826 -0.108037 43.6827 -0.327073 42.0457C-0.730954 39.0272 -3.6657 35.7742 -7.75873 36.3219C-8.52623 36.4245 -9.21535 36.7249 -9.21535 36.7249Z" fill="white"/>
<path fill-rule="evenodd" clip-rule="evenodd" d="M-8.61199 43.9619C-5.38896 43.5307 -3.94441 46.7347 -3.80572 47.7712C-3.66711 48.8072 -4.13524 49.6902 -4.46746 49.5393C-4.80009 49.3888 -5.36023 48.995 -5.84993 48.5526C-6.33864 48.1105 -6.9959 47.573 -7.12411 47.7861C-7.25199 47.9981 -7.06765 48.2081 -6.83418 48.4889C-6.60151 48.7707 -5.82586 49.6039 -5.34738 49.9695C-4.86891 50.335 -4.5691 50.5295 -4.47719 50.6343C-4.38522 50.7395 -4.17486 51.1405 -4.04696 51.5142C-3.91913 51.8875 -3.6881 52.4429 -3.39138 52.9106C-3.09407 53.3792 -2.36449 54.4537 -2.36449 54.4537C-2.36449 54.4537 -2.58168 54.8731 -3.15719 54.9501C-3.7327 55.0271 -4.70556 54.1807 -5.11784 53.1421C-5.11784 53.1421 -5.76052 52.7206 -5.9336 53.1733C-6.10762 53.6262 -6.07322 55.3403 -6.06601 55.6906C-6.05834 56.0407 -6.13736 56.3251 -6.01421 56.6598C-5.89141 56.9955 -5.53776 57.8852 -5.53471 58.1973C-5.53166 58.5094 -5.53717 59.643 -6.11221 59.72C-6.68818 59.7971 -6.93672 58.8145 -7.01074 58.5506C-7.08509 58.2877 -7.70273 56.2999 -7.70273 56.2999L-7.87728 54.9954C-7.92344 54.6504 -8.14623 53.8603 -8.2048 53.7118C-8.26389 53.563 -8.27158 54.384 -8.30952 54.9754C-8.34753 55.5663 -8.39109 56.1192 -8.32438 56.6177C-8.25768 57.1162 -8.06718 57.9508 -7.88078 58.4725C-7.69404 58.9932 -7.4656 59.2364 -7.59129 59.7612C-7.71605 60.2858 -7.87727 60.5415 -8.18473 60.5826C-8.49127 60.6236 -8.9137 60.0948 -9.19566 58.5696C-9.47849 57.045 -9.71158 56.1779 -9.63 55.6198C-9.54789 55.0622 -9.58642 53.8958 -9.73992 53.9163C-9.89389 53.9369 -10.0264 55.282 -10.087 55.9935C-10.148 56.705 -10.207 57.1425 -10.0962 57.6743C-9.98576 58.2071 -9.43551 60.2803 -9.55052 60.2957C-9.66553 60.3111 -10.1491 60.4929 -10.3822 59.6262C-10.6152 58.7595 -10.8175 57.5366 -10.9458 57.1634C-11.0746 56.7903 -11.2025 56.4165 -11.1876 55.9458C-11.1717 55.4749 -11.1799 55.1248 -10.9371 54.3106C-10.9371 54.3106 -10.9582 53.5714 -11.0686 53.6249C-11.1783 53.6792 -11.3314 54.2855 -11.4792 54.9303C-11.6276 55.5746 -11.7878 56.4165 -11.7261 56.8774C-11.6645 57.3379 -11.3832 58.276 -11.3422 58.583L-11.2086 59.581C-11.2086 59.581 -11.4776 59.617 -11.6563 59.4455C-11.836 59.2741 -12.6698 58.2919 -12.8957 56.6034C-13.1216 54.9154 -12.5876 53.9456 -12.1759 53.2264C-11.7647 52.5072 -11.3761 51.9086 -11.1461 51.2915C-10.9162 50.6745 -10.7964 50.1128 -10.5563 49.5718C-10.316 49.0322 -10.2827 48.9885 -10.0501 48.6841C-9.81744 48.3801 -9.59001 48.0372 -9.70502 48.0526C-9.82096 48.0681 -10.3519 48.1783 -10.6461 48.6081C-10.9402 49.0378 -11.4156 49.5702 -11.4998 49.816C-11.585 50.0616 -11.7298 50.4326 -11.8961 50.0645C-12.0634 49.6965 -12.0968 49.1543 -12.1584 48.6938C-12.22 48.2328 -11.9505 44.4086 -8.61199 43.9619ZM2.76462 37.5181C2.76462 37.5181 8.34095 35.9908 17.1915 34.8066C22.2566 34.1288 26.1658 32.9803 26.7819 37.5848C26.9599 38.9153 26.4309 40.0275 26.0707 40.4405C25.7091 40.8529 25.3535 41.3177 23.2259 41.7582C21.098 42.1996 16.9093 42.812 14.2488 43.168C11.5883 43.524 1.32103 44.6372 1.32103 44.6372C1.32103 44.6372 3.97742 42.3029 2.76462 37.5181ZM0.209905 45.6714C0.209905 45.6714 13.2529 44.2906 15.6069 43.9757C17.9604 43.6608 25.0414 42.8696 26.3092 41.45C26.3092 41.45 26.917 42.098 27.1155 43.5815C27.3757 45.526 26.6964 46.383 26.305 46.8663C25.5014 47.8594 23.3497 50.0742 16.1361 51.0394C8.92209 52.0046 3.65856 51.1988 2.52245 50.8821C1.3864 50.5658 -0.299956 50.0069 -1.03463 46.4601L0.209905 45.6714Z" fill="white"/>
<path fill-rule="evenodd" clip-rule="evenodd" d="M0.499162 50.9446C0.499162 50.9446 1.8058 51.7597 3.87616 52.0557C5.94686 52.3508 10.0097 52.7451 16.3537 51.8963C23.3113 50.9654 26.4822 48.1974 26.4822 48.1974C26.4822 48.1974 26.9066 51.3689 25.0702 53.5939C23.0239 56.0712 17.1549 57.101 15.4154 57.3338C9.83794 58.0801 4.08006 57.0794 2.82714 55.8932C1.57515 54.7068 0.75603 54.0357 0.499162 50.9446ZM20.0746 28.3271C20.0746 28.3271 20.7131 28.0335 21.1732 27.9719C21.6341 27.9102 23.7418 28.097 25.2194 29.4098C26.6978 30.7221 28.5057 32.5633 29.0192 36.4008C29.5326 40.2383 27.5379 42.0672 27.5379 42.0672L26.9367 40.689C26.9367 40.689 27.9832 39.5601 27.6889 37.3601C27.285 34.3415 24.6446 33.2881 24.6446 33.2881C24.6446 33.2881 24.7385 30.0987 20.0746 28.3271Z" fill="white"/>
<path fill-rule="evenodd" clip-rule="evenodd" d="M24.7273 28.0691C24.7273 28.0691 26.0744 26.4312 29.0049 27.341C29.0049 27.341 28.7389 27.6886 28.8895 28.8141C29.0401 29.9396 29.839 32.7953 32.0135 34.6456C33.0714 35.5458 33.8868 35.8011 33.8868 35.8011C33.8868 35.8011 33.6462 39.0617 29.6315 39.807C29.6315 39.807 30.1701 38.3816 29.8483 35.9766C29.5261 33.5721 27.7883 29.5345 24.7273 28.0691Z" fill="white"/>
<path fill-rule="evenodd" clip-rule="evenodd" d="M31.8421 25.1896C31.8421 25.1896 31.4877 26.4356 31.652 27.6636C31.8162 28.8911 32.5062 30.1531 33.6069 30.9953C34.709 31.8372 35.9004 32.5638 38.4379 32.0681C38.4379 32.0681 38.4158 34.6229 35.4483 35.02C32.4808 35.417 30.7488 31.4301 30.7488 31.4301C30.7488 31.4301 30.3263 30.601 30.0902 30.0081C29.8551 29.4146 29.5814 28.1488 29.9387 27.3198C30.2974 26.4905 30.4776 25.8934 31.8421 25.1896Z" fill="white"/>
<path fill-rule="evenodd" clip-rule="evenodd" d="M35.1696 23.5992C35.1696 23.5992 34.5865 23.5205 34.2795 23.5616C33.9725 23.6027 33.564 23.6574 33.1101 24.5517C32.6562 25.4456 32.4117 25.9471 32.6034 27.38C32.9115 29.6825 34.5804 31.6458 37.752 31.2214C40.259 30.886 40.5615 28.8671 40.2783 27.9151C40.2783 27.9151 39.5892 28.2155 39.2318 28.4583C38.8735 28.7021 38.5049 28.8685 38.0726 28.848C37.6404 28.828 36.8117 28.4696 36.7265 28.1298C36.6423 27.7894 37.0459 27.8916 37.1721 27.9527C37.2974 28.0147 37.7779 28.1057 38.0079 28.075C38.2379 28.0442 38.7071 27.7473 38.9156 27.5631C39.1259 27.3783 39.2205 27.2098 40.5764 26.8335C41.9321 26.4562 44.125 25.6605 44.863 24.4236C45.7235 22.9802 45.9365 21.9368 46.1819 21.4352C46.4273 20.9336 46.4889 20.2229 45.8286 20.5445C45.1694 20.8678 45.1613 21.1035 44.8491 21.6914C44.5379 22.2797 43.635 23.4163 43.4152 23.5241C43.1955 23.6314 43.0508 23.1433 43.1514 23.0128C43.251 22.8819 43.9584 22.0447 44.1536 21.7462C44.3476 21.4465 44.6639 20.8967 44.7931 20.6835C44.9078 20.4956 45.0662 20.3381 45.2548 20.2246C45.4434 20.111 45.6567 20.0446 45.8765 20.0311C46.4956 19.9874 46.6209 20.049 46.9197 20.2432C46.9197 20.2432 47.7 19.3575 48.0686 19.1912C48.0686 19.1912 47.7307 18.4155 46.9166 18.759C46.1044 19.1028 45.8221 19.3355 45.2867 19.7196C44.7528 20.1036 44.1136 20.5795 43.8035 20.8943C43.4944 21.2089 43.2183 21.481 42.9986 21.5883C42.7788 21.6956 42.2931 21.5656 42.3918 21.4348C42.4922 21.3039 46.1209 17.7722 47.3407 17.8431C47.3407 17.8431 47.1764 17.201 46.238 17.4832C45.3004 17.7649 43.5914 19.009 41.7858 20.6955C41.7858 20.6955 41.1697 20.465 42.0466 19.7231C42.9225 18.9809 44.6007 17.5064 45.2228 17.1886C45.2228 17.1886 44.7341 16.7465 42.9431 17.9633C41.5112 18.9356 41.4321 19.2195 41.4321 19.2195C41.4321 19.2195 40.7669 20.6761 40.2761 21.0929C40.2761 21.0929 40.3634 21.7454 40.2514 22.0724C40.1385 22.4 39.9812 22.9677 39.9812 22.9677C39.9812 22.9677 39.5768 22.866 39.5655 22.2034C39.5553 21.5415 39.5142 21.2341 39.1661 20.9681C39.1661 20.9681 40.6083 19.4869 40.4182 18.0665C40.2282 16.6465 39.0731 17.3486 39.0731 17.3486C39.0731 17.3486 39.1635 18.899 38.2609 20.0347C37.3584 21.1708 36.9744 21.2222 36.6341 21.8932C36.2942 22.5632 36.134 22.8192 36.2058 23.3563C36.2778 23.8942 36.365 24.5458 36.2367 24.7584C36.1094 24.9708 35.8229 25.1654 35.7438 25.4488C35.6648 25.7332 35.5899 26.0557 35.6536 26.2422C35.7182 26.4289 35.4912 26.7718 35.4912 26.7718C35.4912 26.7718 34.6822 26.5675 34.7694 26.0484C34.8557 25.529 34.9399 25.2835 35.1525 24.8256C35.3635 24.3673 35.3628 23.6772 35.1696 23.5992ZM1.2454 55.4534C1.2454 55.4534 2.00832 56.4842 3.21885 57.0643C4.42939 57.6444 7.79207 59.4211 17.2774 57.9178C17.2774 57.9178 17.0217 63.8885 11.0352 64.6895C7.12164 65.2132 1.90364 62.7085 1.19516 57.4135C1.04063 56.262 1.2454 55.4534 1.2454 55.4534ZM18.7246 57.6458C18.7246 57.6458 24.9026 56.2329 25.976 53.7456C25.976 53.7456 27.7643 55.1476 27.733 58.1205C27.733 58.1205 26.8097 57.9306 25.2362 58.1412C23.6628 58.3517 20.3068 59.5428 18.9957 61.7107C17.6841 63.8787 17.1835 64.8048 17.6116 67.7153C17.6116 67.7153 16.166 67.128 15.3799 65.6315C15.3799 65.6315 15.8964 64.8203 15.9647 63.8742C15.9647 63.8742 18.4484 62.2919 18.7246 57.6458Z" fill="white"/>
<path fill-rule="evenodd" clip-rule="evenodd" d="M6.07323 26.2428C6.07323 26.2428 6.11099 26.1334 6.22636 25.8315C6.34266 25.5294 6.35816 25.4088 6.53144 25.3667C6.70565 25.3246 6.75558 25.3873 6.82788 25.6948C6.82788 25.6948 7.26506 25.6141 7.51423 25.5289C7.76333 25.4431 8.88016 25.0336 9.62511 24.9599C10.3706 24.8866 10.7064 24.8671 10.8923 24.8947C11.0786 24.9217 11.2101 24.9305 11.2979 24.814C11.3867 24.6982 11.53 24.6012 11.6785 24.7371C11.8265 24.8735 12.0122 25.3014 11.9162 25.4521C11.8208 25.6036 11.459 25.2352 11.0377 25.7868C10.6171 26.3373 10.2197 27.0678 9.60565 27.15C8.7876 27.2594 8.14059 26.5128 7.70067 26.3366C7.26046 26.1619 6.7173 26.1208 6.58254 26.2214C6.44877 26.3224 6.42847 26.5588 6.22396 26.5861C6.01858 26.6141 5.99122 26.4096 6.07323 26.2428Z" fill="#0651A7"/>
<path fill-rule="evenodd" clip-rule="evenodd" d="M7.95663 25.9126C7.95663 25.9126 8.74724 25.5981 9.64227 25.4784C10.5373 25.3586 10.824 25.4128 10.824 25.4128C10.824 25.4128 10.7123 25.4919 10.5126 25.7523C10.3134 26.0136 9.97574 26.6054 9.51571 26.6669C9.20825 26.7081 8.75185 26.4052 8.52286 26.2531C8.29394 26.1016 8.04335 25.901 7.95663 25.9126Z" fill="white"/>
<path fill-rule="evenodd" clip-rule="evenodd" d="M7.67314 21.6279L7.6859 21.7338L7.69529 21.8392L7.70158 21.9427L7.70258 22.0455L7.70288 22.1465L7.69822 22.2457L7.691 22.3435L7.6805 22.4379L7.66703 22.5313L7.65081 22.6217L7.63196 22.7101L7.61036 22.7956L7.586 22.8782L7.56028 22.9576L7.52996 23.0344L7.49966 23.1078L7.46608 23.1779L7.43096 23.2435L7.39453 23.3065L7.35505 23.3642L7.31512 23.4186L7.27273 23.4686L7.2303 23.5149L7.18672 23.5561L7.14178 23.5943L7.09564 23.6269L7.05005 23.6566L7.00238 23.6814L6.95469 23.7024L6.90736 23.7191L6.85761 23.7319L6.80586 23.7402L6.87157 24.2313L6.96104 24.2156L7.04853 24.1921L7.13568 24.1625L7.21778 24.1269L7.29657 24.0843L7.37335 24.0372L7.44589 23.9831L7.51562 23.9256L7.58169 23.8621L7.64449 23.7951L7.70381 23.7235L7.75981 23.648L7.81193 23.5683L7.86189 23.4866L7.90739 23.3998L7.95027 23.3109L7.99032 23.2187L8.02531 23.1239L8.05847 23.026L8.08789 22.9248L8.11375 22.8217L8.136 22.7163L8.15555 22.6085L8.17114 22.4992L8.183 22.3867L8.19148 22.2737L8.19634 22.1583L8.19817 22.0415L8.19419 21.9235L8.18817 21.8044L8.17866 21.6839L8.16425 21.5622L7.67314 21.6279ZM6.28104 19.8179L6.33317 19.8123L6.38452 19.8116L6.43458 19.8153L6.48613 19.823L6.53863 19.8344L6.59043 19.851L6.64352 19.8704L6.6969 19.8953L6.74979 19.9237L6.80289 19.9572L6.85701 19.9948L6.90978 20.0363L6.96304 20.0816L7.01473 20.1327L7.06586 20.1868L7.11669 20.2456L7.16523 20.3085L7.21466 20.3746L7.26036 20.4445L7.30557 20.5177L7.34889 20.5945L7.39033 20.6749L7.42975 20.7579L7.4673 20.8444L7.50225 20.9328L7.53491 21.0252L7.5655 21.1197L7.59176 21.2172L7.61781 21.3167L7.63901 21.4186L7.65754 21.5219L7.67314 21.6279L8.16425 21.5622L8.14614 21.4409L8.1237 21.3226L8.09814 21.2057L8.07097 21.0908L8.03849 20.9786L8.00347 20.8685L7.96557 20.7617L7.92462 20.6567L7.88079 20.555L7.8335 20.4556L7.78445 20.3606L7.73234 20.2675L7.67742 20.1781L7.61963 20.0919L7.56094 20.0096L7.49799 19.9307L7.43333 19.8567L7.36667 19.7854L7.29692 19.7192L7.22575 19.6565L7.15182 19.598L7.07568 19.544L6.99755 19.4963L6.91709 19.4524L6.83476 19.4157L6.7505 19.3821L6.6641 19.3573L6.5768 19.3364L6.48825 19.3238L6.39639 19.3181L6.30586 19.3189L6.21533 19.3268L6.28104 19.8179Z" fill="#0651A7"/>
<path fill-rule="evenodd" clip-rule="evenodd" d="M5.41492 21.9301L5.40257 21.8236L5.39331 21.7191L5.38695 21.6152L5.38548 21.5125L5.38565 21.4114L5.39031 21.3121L5.39707 21.2145L5.40756 21.1201L5.42103 21.0267L5.43667 20.9354L5.45564 20.8479L5.47817 20.7622L5.50194 20.6788L5.52812 20.5993L5.55811 20.5236L5.58841 20.4501L5.62198 20.38L5.65711 20.3144L5.69353 20.2515L5.73302 20.1938L5.77253 20.1399L5.81487 20.0894L5.85776 20.043L5.90075 20.0009L5.94535 19.9638L5.99196 19.9311L6.03755 19.9014L6.08521 19.8767L6.13291 19.8556L6.18024 19.8389L6.22998 19.8261L6.28127 19.8179L6.21556 19.3267L6.12661 19.3429L6.03906 19.3659L5.95238 19.3955L5.86935 19.4311L5.79109 19.4742L5.71425 19.5208L5.64177 19.5753L5.57257 19.6332L5.50637 19.6959L5.44352 19.7624L5.38471 19.8344L5.32832 19.9104L5.27614 19.9896L5.22624 20.0718L5.18021 20.1582L5.13774 20.2465L5.09775 20.3392L5.06288 20.435L5.02979 20.5334L5.00018 20.6331L4.97484 20.7366L4.95214 20.8421L4.93298 20.9494L4.91745 21.0591L4.90554 21.1712L4.89659 21.2843L4.89219 21.3996L4.89036 21.5164L4.89341 21.6345L4.89996 21.754L4.90942 21.874L4.92382 21.9958L5.41492 21.9301Z" fill="#0651A7"/>
<path fill-rule="evenodd" clip-rule="evenodd" d="M6.80609 23.7402L6.75443 23.7457L6.70307 23.7465L6.65302 23.7428L6.60147 23.735L6.54897 23.7237L6.49717 23.707L6.44361 23.6877L6.39082 23.6636L6.33828 23.6343L6.28472 23.6009L6.23065 23.5637L6.17829 23.5217L6.12503 23.4764L6.07334 23.4252L6.02221 23.3712L5.97138 23.3124L5.92284 23.2495L5.87405 23.1847L5.82783 23.1144L5.78296 23.0402L5.73872 22.9635L5.69741 22.8841L5.65832 22.8001L5.62077 22.7135L5.58583 22.6252L5.55363 22.5327L5.52304 22.4382L5.49631 22.3407L5.47073 22.2412L5.44959 22.1398L5.43093 22.0356L5.41493 21.9301L4.92383 21.9958L4.94194 22.117L4.96444 22.2358L4.98947 22.3524L5.01757 22.4671L5.05006 22.5793L5.08461 22.6894L5.12297 22.7962L5.16398 22.9016L5.20775 23.0029L5.25445 23.1015L5.30415 23.1977L5.35573 23.2904L5.41053 23.3789L5.46832 23.4651L5.52714 23.5484L5.59003 23.6268L5.65428 23.7013L5.72147 23.773L5.79116 23.8387L5.86239 23.9019L5.93671 23.9599L6.01233 24.0135L6.09051 24.0616L6.17086 24.1047L6.25291 24.1428L6.33711 24.1759L6.42357 24.2012L6.51033 24.2216L6.59982 24.2342L6.69121 24.2399L6.7818 24.2396L6.8718 24.2313L6.80609 23.7402Z" fill="#0651A7"/>
<path fill-rule="evenodd" clip-rule="evenodd" d="M6.85714 23.7975C7.37356 23.7129 7.68944 23.0149 7.56195 22.2385C7.43458 21.463 6.91125 20.9033 6.39396 20.9885C5.87667 21.0738 5.56171 21.7716 5.68914 22.5476C5.81657 23.3236 6.33985 23.8828 6.85714 23.7975ZM11.4852 21.0107L11.5004 21.1177L11.5125 21.2223L11.5217 21.3258L11.5278 21.4284L11.5285 21.5288L11.5276 21.6276L11.5232 21.7255L11.5158 21.8218L11.505 21.9143L11.4914 22.0063L11.4753 22.0944L11.4571 22.1804L11.4347 22.2636L11.4106 22.3443L11.3845 22.4214L11.3552 22.4952L11.3242 22.5664L11.2911 22.6331L11.2558 22.6973L11.2184 22.7566L11.1799 22.8113L11.1407 22.8638L11.0988 22.9109L11.0564 22.9539L11.012 22.9919L10.9671 23.0272L10.9221 23.0577L10.8761 23.0842L10.829 23.1066L10.7814 23.1243L10.7323 23.1388L10.6818 23.1494L10.7607 23.6368L10.8508 23.6186L10.9375 23.5929L11.0224 23.5603L11.1041 23.522L11.1817 23.4776L11.2567 23.4274L11.3282 23.373L11.3952 23.3121L11.4596 23.2469L11.5198 23.1779L11.578 23.1055L11.6313 23.0275L11.6814 22.9467L11.7279 22.864L11.7719 22.776L11.8118 22.6862L11.8483 22.5921L11.8816 22.4956L11.9114 22.3972L11.9371 22.296L11.9609 22.1918L11.9801 22.0849L11.9959 21.9775L12.008 21.8669L12.0167 21.7552L12.0219 21.6422L12.0244 21.5267L12.0204 21.4092L12.0145 21.291L12.0057 21.1723L11.9911 21.052L11.9727 20.9322L11.4852 21.0107Z" fill="#0651A7"/>
<path fill-rule="evenodd" clip-rule="evenodd" d="M10.0388 19.2423L10.0904 19.2364L10.142 19.2342L10.1933 19.2363L10.2451 19.2421L10.297 19.2526L10.3499 19.2673L10.4024 19.2857L10.4569 19.3086L10.5114 19.3349L10.5654 19.3678L10.6197 19.403L10.6742 19.4434L10.7287 19.4875L10.782 19.5366L10.8354 19.5899L10.8868 19.6458L10.9379 19.7069L10.9881 19.7719L11.0374 19.8399L11.0834 19.9126L11.1298 19.9876L11.173 20.0672L11.2147 20.149L11.2553 20.2342L11.2931 20.3226L11.3289 20.4136L11.3612 20.5066L11.3919 20.6025L11.4189 20.7018L11.4447 20.8027L11.466 20.9056L11.4853 21.0106L11.9728 20.9322L11.9514 20.8114L11.9257 20.6935L11.8979 20.5773L11.8652 20.4632L11.8305 20.3522L11.7917 20.2422L11.7507 20.1368L11.7067 20.0336L11.6607 19.9331L11.6107 19.835L11.5576 19.7411L11.5033 19.6497L11.4455 19.563L11.386 19.4784L11.3238 19.398L11.2592 19.3212L11.1913 19.2472L11.1226 19.179L11.0517 19.1144L10.9788 19.0533L10.903 18.9983L10.8254 18.9469L10.7456 18.9013L10.6645 18.8593L10.5814 18.8242L10.4954 18.7951L10.4082 18.7714L10.32 18.7544L10.2308 18.7437L10.1407 18.7406L10.05 18.7438L9.95996 18.7553L10.0388 19.2423Z" fill="#0651A7"/>
<path fill-rule="evenodd" clip-rule="evenodd" d="M9.23523 21.382L9.22037 21.2745L9.20826 21.1699L9.19912 21.0663L9.19348 20.9642L9.19232 20.8638L9.19326 20.765L9.19758 20.6667L9.20505 20.5708L9.21573 20.4778L9.22852 20.3864L9.24546 20.2978L9.26369 20.2118L9.28607 20.1285L9.31021 20.0479L9.33664 19.9703L9.36588 19.896L9.39708 19.8257L9.42964 19.7586L9.46501 19.6949L9.50233 19.6351L9.54126 19.5803L9.58056 19.5284L9.62235 19.4807L9.66527 19.4382L9.70863 19.3989L9.7536 19.3645L9.79814 19.334L9.84509 19.3074L9.89168 19.2852L9.93987 19.2679L9.9889 19.2533L10.0389 19.2423L9.96004 18.7553L9.86995 18.7735L9.78318 18.7988L9.69832 18.8314L9.61659 18.8697L9.53944 18.9141L9.46402 18.9643L9.3926 19.0196L9.3251 19.0796L9.26066 19.1449L9.2005 19.2138L9.14275 19.2867L9.08945 19.3646L9.03977 19.4449L8.9929 19.5286L8.94891 19.6162L8.90913 19.7069L8.87303 19.8005L8.8391 19.8962L8.80983 19.995L8.78372 20.0962L8.75996 20.2008L8.74162 20.3071L8.72491 20.4151L8.71321 20.5252L8.70414 20.6374L8.69903 20.7509L8.69695 20.8659L8.7004 20.9834L8.70624 21.1011L8.71557 21.2203L8.72926 21.3402L8.74818 21.4604L9.23523 21.382Z" fill="#0651A7"/>
<path fill-rule="evenodd" clip-rule="evenodd" d="M10.6822 23.1494L10.6304 23.1544L10.579 23.158L10.5277 23.1554L10.476 23.1501L10.424 23.1391L10.3712 23.1254L10.3186 23.1064L10.264 23.0831L10.2099 23.0563L10.1557 23.0249L10.1014 22.9892L10.0473 22.9487L9.99233 22.9046L9.93904 22.8556L9.88565 22.8023L9.83427 22.7464L9.78359 22.6852L9.73295 22.6207L9.68413 22.5522L9.6376 22.4796L9.59121 22.4046L9.54798 22.3249L9.50543 22.2433L9.4657 22.158L9.4275 22.0701L9.39212 21.9785L9.35986 21.8856L9.32909 21.7897L9.30217 21.6908L9.2764 21.59L9.25502 21.4866L9.23537 21.3821L8.74832 21.4605L8.76962 21.5808L8.79536 21.6992L8.82318 21.8153L8.85591 21.9294L8.89059 22.0405L8.92932 22.15L8.9704 22.2559L9.01441 22.359L9.06176 22.4589L9.11032 22.5572L9.16342 22.6507L9.21772 22.7425L9.27611 22.8296L9.33504 22.9138L9.39732 22.9946L9.46182 23.071L9.52926 23.1446L9.59839 23.2132L9.66981 23.2778L9.74212 23.3384L9.81806 23.3943L9.89574 23.4458L9.97554 23.4918L10.057 23.5323L10.1401 23.5679L10.2257 23.5975L10.3129 23.6208L10.401 23.6378L10.4903 23.6485L10.5808 23.6515L10.6711 23.6489L10.7611 23.6368L10.6822 23.1494Z" fill="#0651A7"/>
<path fill-rule="evenodd" clip-rule="evenodd" d="M10.6198 23.1633C11.1358 23.0716 11.4427 22.3706 11.3056 21.5964C11.168 20.8218 10.638 20.2686 10.1225 20.3603C9.60695 20.4514 9.29923 21.154 9.43674 21.9277C9.57385 22.7019 10.1029 23.2551 10.6198 23.1633Z" fill="#0651A7"/>
</g>
<defs>
<clipPath id="clip0_6247_4134">
<rect width="50.225" height="49" fill="white" transform="translate(0 5)"/>
</clipPath>
</defs>
</svg>
