<svg width="18" height="15" viewBox="0 0 18 15" fill="none" xmlns="http://www.w3.org/2000/svg">
<path d="M1.78418 6.7451C1.26438 6.7451 0.843003 7.16648 0.843003 7.68628C0.843003 8.20608 1.26438 8.62746 1.78418 8.62746V6.7451ZM16.8811 8.35179C17.2486 7.98424 17.2486 7.38832 16.8811 7.02077L10.8915 1.03116C10.5239 0.663604 9.92798 0.663604 9.56043 1.03116C9.19288 1.39871 9.19288 1.99463 9.56043 2.36218L14.8845 7.68628L9.56043 13.0104C9.19288 13.3779 9.19288 13.9739 9.56043 14.3414C9.92798 14.709 10.5239 14.709 10.8915 14.3414L16.8811 8.35179ZM1.78418 8.62746H16.2156V6.7451H1.78418V8.62746Z" fill="#1E9CDB"/>
</svg>
