<svg width="30" height="30" viewBox="0 0 30 30" fill="none" xmlns="http://www.w3.org/2000/svg">
<path d="M6.87619 5.9375C6.87619 5.68886 6.77741 5.4504 6.6016 5.27459C6.42578 5.09877 6.18733 5 5.93869 5C5.69005 5 5.45159 5.09877 5.27577 5.27459C5.09996 5.4504 5.00119 5.68886 5.00119 5.9375V22.4244L2.85243 20.2737C2.76527 20.1866 2.66179 20.1174 2.5479 20.0703C2.43402 20.0231 2.31195 19.9988 2.18868 19.9988C2.06541 19.9988 1.94335 20.0231 1.82947 20.0703C1.71558 20.1174 1.6121 20.1866 1.52493 20.2737C1.43777 20.3609 1.36863 20.4644 1.32145 20.5783C1.27428 20.6922 1.25 20.8142 1.25 20.9375C1.25 21.0608 1.27428 21.1828 1.32145 21.2967C1.36863 21.4106 1.43777 21.5141 1.52493 21.6012L5.27494 25.3494L5.28806 25.3625C5.46408 25.5341 5.70079 25.6293 5.94663 25.6272C6.19247 25.625 6.42751 25.5259 6.60056 25.3512L10.3506 21.6012C10.5266 21.4255 10.6256 21.1869 10.6258 20.9382C10.6259 20.6894 10.5273 20.4507 10.3515 20.2747C10.1757 20.0986 9.93719 19.9997 9.68841 19.9995C9.43963 19.9993 9.20097 20.098 9.02494 20.2737L6.87619 22.4244V5.9375ZM14.3762 6.875C14.1275 6.875 13.8891 6.77623 13.7133 6.60041C13.5375 6.4246 13.4387 6.18614 13.4387 5.9375C13.4387 5.68886 13.5375 5.4504 13.7133 5.27459C13.8891 5.09877 14.1275 5 14.3762 5H16.2512C16.4998 5 16.7383 5.09877 16.9141 5.27459C17.0899 5.4504 17.1887 5.68886 17.1887 5.9375C17.1887 6.18614 17.0899 6.4246 16.9141 6.60041C16.7383 6.77623 16.4998 6.875 16.2512 6.875H14.3762ZM14.3762 12.5C14.1275 12.5 13.8891 12.4012 13.7133 12.2254C13.5375 12.0496 13.4387 11.8111 13.4387 11.5625C13.4387 11.3139 13.5375 11.0754 13.7133 10.8996C13.8891 10.7238 14.1275 10.625 14.3762 10.625H20.0012C20.2498 10.625 20.4883 10.7238 20.6641 10.8996C20.8399 11.0754 20.9387 11.3139 20.9387 11.5625C20.9387 11.8111 20.8399 12.0496 20.6641 12.2254C20.4883 12.4012 20.2498 12.5 20.0012 12.5H14.3762ZM14.3762 18.125C14.1275 18.125 13.8891 18.0262 13.7133 17.8504C13.5375 17.6746 13.4387 17.4361 13.4387 17.1875C13.4387 16.9389 13.5375 16.7004 13.7133 16.5246C13.8891 16.3488 14.1275 16.25 14.3762 16.25H23.7512C23.9998 16.25 24.2383 16.3488 24.4141 16.5246C24.5899 16.7004 24.6887 16.9389 24.6887 17.1875C24.6887 17.4361 24.5899 17.6746 24.4141 17.8504C24.2383 18.0262 23.9998 18.125 23.7512 18.125H14.3762ZM13.4387 22.8125C13.4387 23.0611 13.5375 23.2996 13.7133 23.4754C13.8891 23.6512 14.1275 23.75 14.3762 23.75H27.5012C27.7498 23.75 27.9883 23.6512 28.1641 23.4754C28.3399 23.2996 28.4387 23.0611 28.4387 22.8125C28.4387 22.5639 28.3399 22.3254 28.1641 22.1496C27.9883 21.9738 27.7498 21.875 27.5012 21.875H14.3762C14.1275 21.875 13.8891 21.9738 13.7133 22.1496C13.5375 22.3254 13.4387 22.5639 13.4387 22.8125Z" fill="#0E8ECF"/>
</svg>
