<svg width="48" height="48" viewBox="0 0 48 48" fill="none" xmlns="http://www.w3.org/2000/svg">
<path d="M24 48C37.2548 48 48 37.2548 48 24C48 10.7452 37.2548 0 24 0C10.7452 0 0 10.7452 0 24C0 37.2548 10.7452 48 24 48Z" fill="url(#paint0_linear_8062_31591)"/>
<path d="M8.93813 25.174C11.7437 23.6286 14.8755 22.3388 17.8017 21.0424C22.8359 18.919 27.8901 16.8324 32.9953 14.8898C33.9886 14.5588 35.7733 14.2351 35.9483 15.7071C35.8525 17.7907 35.4583 19.8621 35.1879 21.9335C34.5016 26.4887 33.7084 31.0283 32.9349 35.5685C32.6684 37.0808 30.7739 37.8637 29.5617 36.8959C26.6485 34.9281 23.7129 32.9795 20.8369 30.9661C19.8948 30.0088 20.7684 28.6341 21.6098 27.9505C24.0092 25.5859 26.5538 23.5769 28.8278 21.0901C29.4412 19.6088 27.6288 20.8572 27.031 21.2397C23.7462 23.5033 20.5418 25.9051 17.0786 27.8945C15.3096 28.8683 13.2478 28.0361 11.4796 27.4927C9.89419 26.8363 7.57097 26.175 8.93797 25.1741L8.93813 25.174Z" fill="white"/>
<defs>
<linearGradient id="paint0_linear_8062_31591" x1="18.0028" y1="2.0016" x2="6.0028" y2="30" gradientUnits="userSpaceOnUse">
<stop stop-color="#37AEE2"/>
<stop offset="1" stop-color="#1E96C8"/>
</linearGradient>
</defs>
</svg>
