<svg width="55" height="54" viewBox="0 0 55 54" fill="none" xmlns="http://www.w3.org/2000/svg">
<g clip-path="url(#clip0_12809_42155)">
<path d="M0.699707 4C0.699707 1.79086 2.49057 0 4.69971 0H50.6997C52.9088 0 54.6997 1.79086 54.6997 4V50C54.6997 52.2091 52.9088 54 50.6997 54H4.69971C2.49057 54 0.699707 52.2091 0.699707 50V4Z" fill="#E0EB65"/>
<g clip-path="url(#clip1_12809_42155)">
<path fill-rule="evenodd" clip-rule="evenodd" d="M-2.54501 31.9165C-2.54501 31.9165 -0.988312 30.0281 2.07547 29.4757C2.07547 29.4757 0.751032 28.4288 0.540559 26.8558C0.365951 25.5508 1.5647 23.7109 1.5647 23.7109C1.5647 23.7109 0.603124 19.1526 4.284 16.5902C4.284 16.5902 4.6973 15.0116 7.11012 14.6495C9.52201 14.2876 10.4414 15.6096 10.4414 15.6096C10.4414 15.6096 14.0767 16.2169 14.8993 20.3255C14.8993 20.3255 18.4318 22.7819 16.7115 27.1524C16.7115 27.1524 18.1546 26.8423 19.4639 27.2921C19.4639 27.2921 21.03 26.145 24.3789 26.947C24.3789 26.947 26.4114 24.9176 29.6504 25.7733C29.6504 25.7733 30.4913 24.1762 32.6428 23.6146C32.6428 23.6146 33.801 22.0539 35.6435 22.3931C35.6435 22.3931 35.6836 21.5286 36.5737 20.5891C37.463 19.6502 38.0825 19.0202 38.0774 18.3959C38.0722 17.7716 37.9194 16.3471 40.0688 16.0595C41.9113 15.813 42.4966 16.9842 42.4966 16.9842C42.4966 16.9842 43.5993 16.1725 44.8277 16.0081C46.0548 15.8439 46.5449 16.2858 46.5449 16.2858C46.5449 16.2858 47.5112 15.9228 48.6862 16.8192C49.8608 17.7166 49.3876 18.5616 49.3876 18.5616C49.3876 18.5616 49.746 18.9045 49.7357 19.4134C49.7264 19.9225 49.6516 20.2455 49.3208 20.6802C48.9873 21.1156 48.3156 21.6346 48.3156 21.6346C48.3156 21.6346 47.9193 23.0547 47.3002 24.27C46.6821 25.4856 46.0554 26.937 42.5494 27.8743C42.5494 27.8743 42.4016 30.8624 40.7172 31.9865C40.7172 31.9865 40.6114 35.8672 36.0167 36.5603C36.0167 36.5603 35.0819 40.669 30.4384 41.2903C30.4384 41.2903 30.0461 42.4366 29.2499 43.2068C29.2499 43.2068 29.8804 45.5837 28.5179 47.3672C28.5179 47.3672 29.3608 49.2852 27.9838 52.711C27.9838 52.711 29.7904 53.9533 30.0067 57.909C30.0067 57.909 34.257 59.6056 35.2669 64.8216C35.2669 64.8216 36.1602 65.9521 36.3921 67.0922C36.3921 67.0922 40.7437 68.3854 39.6026 74.7484C39.6026 74.7484 40.7474 77.173 39.2546 80.029C39.2546 80.029 39.432 80.4735 39.4342 80.7857C39.4342 80.7857 41.6977 79.3112 43.9775 79.1233C46.2575 78.9362 46.9095 79.4343 47.3499 79.8049C47.7895 80.1757 48.4146 80.7557 48.5678 81.322C48.5678 81.322 48.7823 81.1753 49.0617 81.8026C49.3409 82.4289 49.5946 83.45 49.1705 84.3658C48.7464 85.2817 48.0042 85.5765 46.9686 86.3008C45.9327 87.0257 43.1267 89.1199 40.7978 91.2668C40.7978 91.2668 39.3394 92.6336 39.015 92.8337C38.6904 93.0329 37.4701 93.5474 36.7791 93.6399C36.0891 93.7322 34.5792 93.5434 33.993 92.9581C33.4067 92.3728 32.9077 91.8533 32.8789 90.7634C32.8511 89.6739 32.7064 87.4279 32.688 87.0008C32.6695 86.5737 32.2731 85.0647 31.2545 83.8727C31.2545 83.8727 27.7035 83.6058 26.5939 80.2771C26.5939 80.2771 22.9659 78.8493 23.3836 74.3793L23.1467 73.787C23.1467 73.787 19.6145 72.775 18.674 70.1276C18.674 70.1276 16.6651 69.4202 15.3261 67.2943C15.3261 67.2943 14.0222 69.2262 12.4235 69.831C12.4235 69.831 11.5841 73.7711 7.17129 74.9483C7.17129 74.9483 5.32266 77.7735 2.06114 78.2099C-0.433353 78.5437 -2.2909 77.5026 -2.2909 77.5026C-2.2909 77.5026 -4.23706 78.4276 -5.99538 77.8425C-5.99538 77.8425 -5.89012 78.3363 -5.7927 79.0644C-5.69504 79.7943 -4.99126 84.465 -9.59579 85.0811C-12.1288 85.42 -14.4246 84.321 -14.9841 80.1394C-15.5438 75.9564 -15.1932 74.7766 -15.3781 73.3946C-15.5629 72.014 -15.7708 71.9239 -15.9402 70.6578C-16.1096 69.3918 -16.1184 66.6981 -13.2019 66.3078C-11.2834 66.0511 -11.2725 66.7143 -10.774 66.6476C-10.2755 66.5809 -10.276 65.9947 -9.54188 65.3498C-8.8074 64.704 -8.08345 63.9831 -5.89688 63.6905C-4.97542 63.5672 -4.64841 63.6792 -4.64841 63.6792C-4.64841 63.6792 -3.48504 62.157 -1.06503 61.5594C-1.06503 61.5594 -1.27292 60.2985 0.401743 57.3408C0.401743 57.3408 0.204095 56.1565 0.563857 54.467C0.563857 54.467 -0.435056 52.3745 -0.264743 50.3205C-0.264743 50.3205 -1.12722 49.4205 -1.39115 48.3229C-1.39115 48.3229 -1.8331 49.9837 -2.23158 50.5053C-2.23158 50.5053 -1.57077 52.5265 -0.031727 54.3905C-0.031727 54.3905 -0.721715 56.2402 -2.10275 56.425C-3.48425 56.6099 -4.07557 55.9866 -4.07557 55.9866C-4.07557 55.9866 -4.05503 56.1401 -3.91696 56.5899C-3.77842 57.0396 -3.56873 57.4425 -3.4867 58.0556C-3.40455 58.6696 -3.59458 61.6241 -6.04282 61.1322C-6.04282 61.1322 -7.11891 62.7211 -8.73655 61.7267C-8.73655 61.7267 -10.0745 61.9445 -10.8219 61.0296C-10.8219 61.0296 -12.7923 61.1733 -13.6814 56.8815C-14.2333 54.2212 -12.2008 51.6055 -12.2008 51.6055L-12.5413 50.5182C-12.5413 50.5182 -14.4459 49.1326 -14.8721 45.9472C-15.2982 42.7626 -13.101 40.7891 -13.101 40.7891C-13.101 40.7891 -12.5219 38.4071 -10.3298 36.9809C-10.3303 36.9809 -8.79598 31.711 -2.54501 31.9165Z" fill="#0651A7"/>
<path fill-rule="evenodd" clip-rule="evenodd" d="M3.07661 22.7261C3.07661 22.7261 2.44609 20.5715 3.89064 18.7129C5.24623 16.969 6.60104 17.054 6.76717 16.9902C6.9337 16.9259 6.90968 16.7464 6.62084 16.7327C6.33252 16.7193 6.06676 16.677 6.04963 16.549C6.03251 16.421 6.53388 15.8852 7.45442 15.762C8.37495 15.6388 8.92222 15.8588 8.95771 16.124C8.9932 16.3893 8.83317 16.3328 8.82126 16.4378C8.80906 16.5442 8.92225 16.607 9.07864 16.6115C9.23614 16.6173 10.4179 16.6929 11.2132 17.186C12.0079 17.6787 13.2516 18.6055 13.4604 20.166C13.5049 20.4985 13.5715 20.5939 13.4879 20.6571C13.4047 20.7196 13.1747 20.7504 13.4134 20.979C13.6522 21.2077 13.9224 21.2758 14.2405 21.5193C14.5597 21.7632 15.5942 22.4844 15.8775 24.2171C16.1607 25.9494 15.6181 27.338 14.8511 27.6422C14.8511 27.6422 14.9732 27.7751 15.1384 28.039C15.3046 28.3038 15.4218 28.6011 15.3368 28.7423C15.2514 28.884 15.0972 29.0863 14.9761 29.1545C14.8549 29.2226 14.6602 29.327 14.6773 29.4546C14.6944 29.5825 15.2276 29.4857 15.5259 29.1852C15.8251 28.8846 15.9267 28.4802 15.9267 28.4802C15.9267 28.4802 16.1798 28.4204 16.4892 28.4049C16.7997 28.3893 19.0584 28.139 21.004 29.259C22.9508 30.3783 24.3054 31.5514 24.4628 32.7283C24.5142 33.1123 24.7245 33.3183 24.0194 33.3088C23.3156 33.2987 20.6311 33.4756 17.9702 33.8317C15.3106 34.1875 9.70945 35.1452 3.4549 36.6594C3.4549 36.6594 2.02969 33.6987 -1.26273 32.7859C-1.26273 32.7859 0.156721 31.0854 2.3827 30.7876C3.38069 30.654 3.55814 30.8125 3.93327 30.8926C4.30795 30.9727 4.63595 31.0851 4.71108 30.8669C4.78574 30.6487 4.43611 30.5652 4.35624 30.5504C4.27578 30.5347 3.98607 30.3134 4.33533 30.0061C4.68506 29.6987 4.87096 29.7263 4.43069 29.551C3.99077 29.3748 2.29871 28.7945 2.01459 26.671C1.78184 24.9315 2.59633 24.0158 2.88528 23.6387C3.17323 23.2612 3.79676 22.8657 4.1258 22.7953C4.45535 22.7252 4.55406 22.2952 3.97593 22.4514C3.39668 22.6063 3.2548 22.6749 3.07661 22.7261Z" fill="white"/>
<path fill-rule="evenodd" clip-rule="evenodd" d="M-8.51564 36.725C-8.51564 36.725 -7.47687 33.9822 -4.0484 33.5235C-0.620846 33.0649 2.38882 35.3184 2.8885 39.0529C3.45676 43.2999 -0.079358 45.2827 -0.079358 45.2827C-0.079358 45.2827 0.59167 43.6828 0.372634 42.0458C-0.0312473 39.0272 -2.96599 35.7743 -7.05902 36.3219C-7.82652 36.4246 -8.51564 36.725 -8.51564 36.725Z" fill="white"/>
<path fill-rule="evenodd" clip-rule="evenodd" d="M-7.91228 43.9618C-4.68925 43.5305 -3.2447 46.7346 -3.10602 47.771C-2.9674 48.8071 -3.43553 49.6901 -3.76775 49.5391C-4.10038 49.3887 -4.66052 48.9949 -5.15022 48.5525C-5.63893 48.1104 -6.29619 47.5729 -6.42441 47.786C-6.55228 47.998 -6.36794 48.208 -6.13447 48.4887C-5.90181 48.7706 -5.12615 49.6038 -4.64767 49.9694C-4.1692 50.3349 -3.86939 50.5294 -3.77748 50.6342C-3.68551 50.7394 -3.47515 51.1403 -3.34725 51.5141C-3.21942 51.8874 -2.98839 52.4427 -2.69167 52.9105C-2.39436 53.3791 -1.66478 54.4536 -1.66478 54.4536C-1.66478 54.4536 -1.88198 54.873 -2.45749 54.95C-3.03299 55.027 -4.00585 54.1805 -4.41813 53.142C-4.41813 53.142 -5.06081 52.7205 -5.2339 53.1732C-5.40791 53.6261 -5.37352 55.3402 -5.36631 55.6904C-5.35863 56.0406 -5.43765 56.325 -5.31451 56.6597C-5.1917 56.9954 -4.83805 57.8851 -4.835 58.1972C-4.83195 58.5093 -4.83746 59.6429 -5.4125 59.7199C-5.98848 59.7969 -6.23701 58.8143 -6.31103 58.5505C-6.38539 58.2876 -7.00303 56.2998 -7.00303 56.2998L-7.17757 54.9953C-7.22374 54.6503 -7.44653 53.8601 -7.50509 53.7117C-7.56418 53.5629 -7.57187 54.3839 -7.60982 54.9752C-7.64782 55.5661 -7.69138 56.1191 -7.62468 56.6176C-7.55797 57.1161 -7.36747 57.9507 -7.18108 58.4724C-6.99434 58.9931 -6.7659 59.2363 -6.89158 59.761C-7.01635 60.2857 -7.17756 60.5414 -7.48502 60.5825C-7.79156 60.6235 -8.21399 60.0947 -8.49595 58.5695C-8.77878 57.0449 -9.01187 56.1777 -8.93029 55.6197C-8.84818 55.0621 -8.88671 53.8956 -9.04021 53.9162C-9.19418 53.9368 -9.32669 55.2819 -9.38728 55.9934C-9.44832 56.7049 -9.50733 57.1423 -9.39652 57.6741C-9.28605 58.2069 -8.73581 60.2802 -8.85081 60.2956C-8.96582 60.311 -9.44943 60.4927 -9.68245 59.6261C-9.91548 58.7594 -10.1178 57.5365 -10.2461 57.1633C-10.3749 56.7901 -10.5028 56.4164 -10.4879 55.9457C-10.472 55.4748 -10.4802 55.1247 -10.2374 54.3105C-10.2374 54.3105 -10.2585 53.5713 -10.3688 53.6247C-10.4786 53.6791 -10.6317 54.2854 -10.7795 54.9301C-10.9279 55.5745 -11.0881 56.4164 -11.0264 56.8773C-10.9648 57.3378 -10.6835 58.2759 -10.6425 58.5829L-10.5089 59.5809C-10.5089 59.5809 -10.7779 59.6169 -10.9566 59.4454C-11.1363 59.274 -11.9701 58.2918 -12.196 56.6033C-12.4219 54.9153 -11.8879 53.9455 -11.4762 53.2263C-11.065 52.5071 -10.6764 51.9084 -10.4464 51.2914C-10.2165 50.6744 -10.0967 50.1126 -9.8566 49.5716C-9.6163 49.032 -9.58296 48.9884 -9.35038 48.684C-9.11773 48.38 -8.8903 48.0371 -9.00531 48.0525C-9.12125 48.068 -9.65219 48.1782 -9.94636 48.6079C-10.2405 49.0377 -10.7159 49.57 -10.8001 49.8159C-10.8853 50.0614 -11.0301 50.4325 -11.1964 50.0644C-11.3637 49.6963 -11.397 49.1542 -11.4587 48.6937C-11.5203 48.2327 -11.2508 44.4085 -7.91228 43.9618ZM3.46432 37.518C3.46432 37.518 9.04066 35.9907 17.8912 34.8064C22.9563 34.1287 26.8655 32.9802 27.4816 37.5847C27.6596 38.9152 27.1306 40.0273 26.7704 40.4404C26.4088 40.8528 26.0532 41.3176 23.9256 41.7581C21.7977 42.1995 17.609 42.8119 14.9485 43.1679C12.288 43.5238 2.02074 44.637 2.02074 44.637C2.02074 44.637 4.67713 42.3028 3.46432 37.518ZM0.909612 45.6713C0.909612 45.6713 13.9526 44.2905 16.3066 43.9756C18.6601 43.6607 25.7411 42.8695 27.0089 41.4498C27.0089 41.4498 27.6167 42.0978 27.8152 43.5814C28.0754 45.5258 27.3961 46.3829 27.0048 46.8662C26.2011 47.8593 24.0494 50.0741 16.8358 51.0393C9.6218 52.0045 4.35827 51.1987 3.22216 50.882C2.08611 50.5657 0.399751 50.0068 -0.33492 46.4599L0.909612 45.6713Z" fill="white"/>
<path fill-rule="evenodd" clip-rule="evenodd" d="M1.19887 50.9445C1.19887 50.9445 2.50551 51.7596 4.57587 52.0556C6.64657 52.3507 10.7094 52.745 17.0534 51.8962C24.011 50.9653 27.1819 48.1973 27.1819 48.1973C27.1819 48.1973 27.6063 51.3688 25.7699 53.5938C23.7236 56.0712 17.8546 57.101 16.1151 57.3337C10.5376 58.08 4.77977 57.0793 3.52685 55.8931C2.27485 54.7068 1.45574 54.0356 1.19887 50.9445ZM20.7743 28.327C20.7743 28.327 21.4128 28.0334 21.8729 27.9718C22.3338 27.9101 24.4415 28.0969 25.9191 29.4097C27.3975 30.722 29.2054 32.5632 29.7189 36.4007C30.2323 40.2382 28.2376 42.0671 28.2376 42.0671L27.6364 40.689C27.6364 40.689 28.6829 39.56 28.3886 37.36C27.9847 34.3415 25.3443 33.288 25.3443 33.288C25.3443 33.288 25.4382 30.0986 20.7743 28.327Z" fill="white"/>
<path fill-rule="evenodd" clip-rule="evenodd" d="M25.427 28.0691C25.427 28.0691 26.7741 26.4312 29.7046 27.341C29.7046 27.341 29.4386 27.6886 29.5892 28.8141C29.7398 29.9396 30.5387 32.7953 32.7132 34.6456C33.7711 35.5458 34.5865 35.8012 34.5865 35.8012C34.5865 35.8012 34.3459 39.0617 30.3312 39.807C30.3312 39.807 30.8698 38.3816 30.548 35.9766C30.2258 33.5722 28.488 29.5345 25.427 28.0691Z" fill="white"/>
<path fill-rule="evenodd" clip-rule="evenodd" d="M32.5418 25.1896C32.5418 25.1896 32.1874 26.4356 32.3517 27.6636C32.5159 28.8911 33.2059 30.1531 34.3066 30.9953C35.4087 31.8372 36.6001 32.5638 39.1376 32.0681C39.1376 32.0681 39.1155 34.6229 36.148 35.02C33.1805 35.417 31.4485 31.4301 31.4485 31.4301C31.4485 31.4301 31.026 30.601 30.7899 30.0081C30.5548 29.4146 30.2811 28.1488 30.6384 27.3198C30.9971 26.4905 31.1773 25.8934 32.5418 25.1896Z" fill="white"/>
<path fill-rule="evenodd" clip-rule="evenodd" d="M35.8693 23.5993C35.8693 23.5993 35.2862 23.5206 34.9792 23.5617C34.6722 23.6027 34.2637 23.6574 33.8098 24.5518C33.3559 25.4457 33.1114 25.9471 33.3031 27.3801C33.6112 29.6826 35.2801 31.6458 38.4517 31.2215C40.9587 30.886 41.2612 28.8672 40.978 27.9152C40.978 27.9152 40.2889 28.2156 39.9315 28.4584C39.5732 28.7022 39.2046 28.8686 38.7723 28.8481C38.3401 28.828 37.5114 28.4697 37.4263 28.1299C37.342 27.7895 37.7456 27.8917 37.8718 27.9527C37.9971 28.0148 38.4776 28.1058 38.7076 28.075C38.9376 28.0442 39.4068 27.7473 39.6153 27.5632C39.8257 27.3783 39.9202 27.2099 41.2761 26.8335C42.6318 26.4562 44.8247 25.6605 45.5627 24.4237C46.4232 22.9802 46.6362 21.9368 46.8816 21.4352C47.127 20.9337 47.1886 20.223 46.5283 20.5446C45.8691 20.8678 45.861 21.1035 45.5488 21.6915C45.2376 22.2797 44.3347 23.4164 44.1149 23.5241C43.8952 23.6314 43.7506 23.1433 43.8511 23.0128C43.9507 22.882 44.6581 22.0448 44.8533 21.7463C45.0473 21.4465 45.3636 20.8968 45.4928 20.6836C45.6075 20.4956 45.7659 20.3382 45.9545 20.2246C46.1432 20.111 46.3564 20.0447 46.5762 20.0312C47.1953 19.9875 47.3206 20.0491 47.6195 20.2432C47.6195 20.2432 48.3997 19.3576 48.7683 19.1912C48.7683 19.1912 48.4304 18.4155 47.6163 18.7591C46.8041 19.1028 46.5218 19.3356 45.9864 19.7197C45.4525 20.1036 44.8133 20.5795 44.5032 20.8943C44.1942 21.209 43.918 21.481 43.6983 21.5883C43.4785 21.6956 42.9928 21.5656 43.0915 21.4349C43.1919 21.3039 46.8206 17.7723 48.0404 17.8432C48.0404 17.8432 47.8761 17.201 46.9377 17.4833C46.0001 17.765 44.2911 19.009 42.4856 20.6956C42.4856 20.6956 41.8694 20.465 42.7463 19.7232C43.6223 18.981 45.3004 17.5065 45.9225 17.1886C45.9225 17.1886 45.4338 16.7466 43.6428 17.9633C42.2109 18.9357 42.1318 19.2196 42.1318 19.2196C42.1318 19.2196 41.4666 20.6761 40.9758 21.093C40.9758 21.093 41.0631 21.7455 40.9511 22.0725C40.8382 22.4001 40.6809 22.9678 40.6809 22.9678C40.6809 22.9678 40.2765 22.8661 40.2652 22.2034C40.255 21.5416 40.2139 21.2341 39.8658 20.9682C39.8658 20.9682 41.308 19.487 41.1179 18.0666C40.9279 16.6466 39.7728 17.3487 39.7728 17.3487C39.7728 17.3487 39.8632 18.8991 38.9606 20.0348C38.0581 21.1709 37.6741 21.2223 37.3338 21.8933C36.9939 22.5633 36.8337 22.8193 36.9056 23.3563C36.9775 23.8943 37.0647 24.5458 36.9364 24.7584C36.8091 24.9709 36.5226 25.1655 36.4435 25.4489C36.3645 25.7333 36.2896 26.0558 36.3533 26.2422C36.4179 26.429 36.1909 26.7719 36.1909 26.7719C36.1909 26.7719 35.3819 26.5676 35.4692 26.0485C35.5554 25.529 35.6397 25.2836 35.8522 24.8256C36.0632 24.3673 36.0625 23.6773 35.8693 23.5993ZM1.94511 55.4535C1.94511 55.4535 2.70803 56.4843 3.91856 57.0644C5.12909 57.6445 8.49178 59.4212 17.9771 57.9179C17.9771 57.9179 17.7214 63.8886 11.7349 64.6896C7.82135 65.2132 2.60335 62.7086 1.89487 57.4135C1.74033 56.2621 1.94511 55.4535 1.94511 55.4535ZM19.4243 57.6459C19.4243 57.6459 25.6023 56.233 26.6757 53.7457C26.6757 53.7457 28.464 55.1477 28.4327 58.1206C28.4327 58.1206 27.5094 57.9307 25.936 58.1412C24.3625 58.3518 21.0065 59.5428 19.6954 61.7108C18.3838 63.8788 17.8832 64.8049 18.3113 67.7154C18.3113 67.7154 16.8657 67.128 16.0796 65.6316C16.0796 65.6316 16.5961 64.8204 16.6645 63.8742C16.6645 63.8742 19.1481 62.2919 19.4243 57.6459Z" fill="white"/>
<path fill-rule="evenodd" clip-rule="evenodd" d="M6.77294 26.2429C6.77294 26.2429 6.8107 26.1335 6.92607 25.8315C7.04237 25.5294 7.05787 25.4088 7.23115 25.3668C7.40535 25.3246 7.45529 25.3873 7.52759 25.6948C7.52759 25.6948 7.96477 25.6142 8.21394 25.5289C8.46304 25.4432 9.57987 25.0336 10.3248 24.9599C11.0703 24.8866 11.4061 24.8672 11.592 24.8947C11.7783 24.9217 11.9098 24.9305 11.9976 24.814C12.0864 24.6983 12.2297 24.6012 12.3782 24.7371C12.5262 24.8735 12.7119 25.3014 12.6159 25.4521C12.5205 25.6036 12.1587 25.2352 11.7374 25.7868C11.3168 26.3373 10.9194 27.0679 10.3054 27.15C9.48731 27.2595 8.8403 26.5129 8.40037 26.3367C7.96017 26.1619 7.41701 26.1208 7.28225 26.2214C7.14848 26.3224 7.12818 26.5588 6.92367 26.5862C6.71829 26.6141 6.69092 26.4096 6.77294 26.2429Z" fill="#0651A7"/>
<path fill-rule="evenodd" clip-rule="evenodd" d="M8.65633 25.9125C8.65633 25.9125 9.44695 25.5981 10.342 25.4783C11.237 25.3586 11.5237 25.4127 11.5237 25.4127C11.5237 25.4127 11.412 25.4919 11.2123 25.7522C11.0131 26.0135 10.6755 26.6053 10.2154 26.6669C9.90796 26.708 9.45156 26.4051 9.22257 26.2531C8.99365 26.1015 8.74305 25.9009 8.65633 25.9125Z" fill="white"/>
<path fill-rule="evenodd" clip-rule="evenodd" d="M8.37285 21.6278L8.3856 21.7337L8.39499 21.8391L8.40128 21.9426L8.40229 22.0454L8.40259 22.1464L8.39793 22.2457L8.39071 22.3434L8.38021 22.4378L8.36674 22.5312L8.35052 22.6216L8.33167 22.71L8.31006 22.7955L8.28571 22.8781L8.25999 22.9575L8.22966 23.0343L8.19937 23.1077L8.16579 23.1779L8.13067 23.2434L8.09424 23.3064L8.05475 23.3641L8.01483 23.4185L7.97243 23.4685L7.93001 23.5148L7.88643 23.5561L7.84149 23.5942L7.79535 23.6268L7.74975 23.6565L7.70209 23.6813L7.65439 23.7023L7.60706 23.719L7.55732 23.7318L7.50557 23.7401L7.57128 24.2312L7.66075 24.2155L7.74824 24.192L7.83538 24.1624L7.91749 24.1269L7.99628 24.0842L8.07306 24.0371L8.1456 23.983L8.21532 23.9256L8.2814 23.862L8.34419 23.795L8.40352 23.7234L8.45951 23.6479L8.51164 23.5682L8.56159 23.4865L8.6071 23.3997L8.64997 23.3109L8.69003 23.2186L8.72502 23.1238L8.75818 23.0259L8.7876 22.9247L8.81346 22.8217L8.8357 22.7162L8.85526 22.6084L8.87085 22.4991L8.8827 22.3866L8.89118 22.2736L8.89605 22.1582L8.89788 22.0414L8.8939 21.9234L8.88788 21.8043L8.87836 21.6838L8.86396 21.5621L8.37285 21.6278ZM6.98075 19.8178L7.03288 19.8122L7.08423 19.8115L7.13429 19.8152L7.18583 19.8229L7.23834 19.8343L7.29014 19.851L7.34323 19.8703L7.39661 19.8952L7.44949 19.9236L7.50259 19.9571L7.55672 19.9947L7.60949 20.0362L7.66275 20.0815L7.71444 20.1326L7.76557 20.1867L7.81639 20.2455L7.86493 20.3084L7.91437 20.3745L7.96007 20.4444L8.00528 20.5176L8.0486 20.5944L8.09003 20.6748L8.12946 20.7578L8.16701 20.8444L8.20195 20.9327L8.23462 21.0251L8.26521 21.1196L8.29147 21.2171L8.31752 21.3166L8.33871 21.4185L8.35725 21.5218L8.37285 21.6278L8.86396 21.5621L8.84585 21.4408L8.82341 21.3225L8.79785 21.2056L8.77068 21.0907L8.73819 20.9785L8.70317 20.8684L8.66528 20.7616L8.62433 20.6567L8.5805 20.5549L8.53321 20.4555L8.48416 20.3606L8.43205 20.2675L8.37713 20.178L8.31934 20.0918L8.26064 20.0095L8.19769 19.9306L8.13304 19.8567L8.06637 19.7853L7.99662 19.7191L7.92545 19.6564L7.85153 19.5979L7.77538 19.5439L7.69726 19.4963L7.61679 19.4523L7.53447 19.4156L7.4502 19.382L7.3638 19.3572L7.27651 19.3364L7.18796 19.3237L7.09609 19.318L7.00556 19.3188L6.91504 19.3267L6.98075 19.8178Z" fill="#0651A7"/>
<path fill-rule="evenodd" clip-rule="evenodd" d="M6.11463 21.93L6.10228 21.8236L6.09302 21.7191L6.08666 21.6151L6.08519 21.5124L6.08536 21.4114L6.09002 21.3121L6.09677 21.2144L6.10727 21.12L6.12074 21.0267L6.13637 20.9353L6.15535 20.8478L6.17788 20.7622L6.20165 20.6788L6.22783 20.5993L6.25781 20.5235L6.28811 20.4501L6.32169 20.38L6.35681 20.3144L6.39324 20.2514L6.43272 20.1938L6.47224 20.1399L6.51458 20.0893L6.55747 20.043L6.60046 20.0009L6.64506 19.9638L6.69167 19.9311L6.73725 19.9014L6.78492 19.8766L6.83262 19.8556L6.87994 19.8389L6.92969 19.8261L6.98097 19.8178L6.91526 19.3267L6.82632 19.3429L6.73877 19.3659L6.65209 19.3954L6.56906 19.4311L6.49079 19.4741L6.41396 19.5208L6.34148 19.5753L6.27228 19.6332L6.20608 19.6959L6.14322 19.7623L6.08442 19.8344L6.02803 19.9104L5.97584 19.9896L5.92595 20.0718L5.87992 20.1582L5.83745 20.2465L5.79745 20.3392L5.76259 20.435L5.72949 20.5333L5.69989 20.6331L5.67455 20.7366L5.65184 20.842L5.63269 20.9494L5.61716 21.0591L5.60525 21.1712L5.5963 21.2842L5.5919 21.3995L5.59007 21.5164L5.59312 21.6344L5.59967 21.7539L5.60913 21.874L5.62353 21.9957L6.11463 21.93Z" fill="#0651A7"/>
<path fill-rule="evenodd" clip-rule="evenodd" d="M7.5058 23.7403L7.45414 23.7458L7.40278 23.7465L7.35273 23.7428L7.30118 23.7351L7.24867 23.7237L7.19688 23.707L7.14332 23.6878L7.09053 23.6637L7.03799 23.6344L6.98443 23.6009L6.93036 23.5638L6.878 23.5217L6.82474 23.4764L6.77305 23.4253L6.72192 23.3712L6.67109 23.3124L6.62255 23.2495L6.57376 23.1848L6.52754 23.1145L6.48267 23.0402L6.43842 22.9636L6.39711 22.8841L6.35802 22.8001L6.32048 22.7136L6.28553 22.6253L6.25334 22.5328L6.22275 22.4382L6.19602 22.3408L6.17043 22.2413L6.1493 22.1398L6.13064 22.0356L6.11464 21.9301L5.62354 21.9958L5.64165 22.1171L5.66415 22.2359L5.68918 22.3524L5.71728 22.4672L5.74976 22.5794L5.78432 22.6895L5.82268 22.7962L5.86369 22.9017L5.90745 23.003L5.95416 23.1015L6.00385 23.1978L6.05544 23.2905L6.11024 23.379L6.16803 23.4652L6.22684 23.5484L6.28974 23.6269L6.35399 23.7013L6.42117 23.7731L6.49086 23.8388L6.5621 23.902L6.63642 23.96L6.71204 24.0136L6.79022 24.0617L6.87057 24.1047L6.95261 24.1429L7.03682 24.176L7.12327 24.2012L7.21004 24.2217L7.29953 24.2343L7.39092 24.24L7.48151 24.2397L7.57151 24.2314L7.5058 23.7403Z" fill="#0651A7"/>
<path fill-rule="evenodd" clip-rule="evenodd" d="M7.55684 23.7975C8.07327 23.7128 8.38915 23.0149 8.26165 22.2384C8.13429 21.4629 7.61095 20.9032 7.09366 20.9885C6.57638 21.0738 6.26142 21.7716 6.38885 22.5476C6.51628 23.3236 7.03955 23.8828 7.55684 23.7975ZM12.1849 21.0106L12.2001 21.1176L12.2122 21.2222L12.2214 21.3258L12.2275 21.4284L12.2282 21.5288L12.2273 21.6276L12.2229 21.7254L12.2155 21.8218L12.2048 21.9143L12.1911 22.0063L12.175 22.0944L12.1568 22.1804L12.1344 22.2636L12.1103 22.3442L12.0843 22.4214L12.0549 22.4951L12.0239 22.5663L11.9908 22.6331L11.9555 22.6973L11.9181 22.7566L11.8796 22.8113L11.8404 22.8637L11.7985 22.9109L11.7561 22.9538L11.7117 22.9919L11.6668 23.0272L11.6218 23.0577L11.5758 23.0842L11.5287 23.1065L11.4811 23.1242L11.432 23.1388L11.3815 23.1493L11.4604 23.6368L11.5505 23.6186L11.6372 23.5928L11.7221 23.5602L11.8038 23.5219L11.8814 23.4776L11.9564 23.4274L12.028 23.373L12.0949 23.3121L12.1593 23.2468L12.2195 23.1779L12.2777 23.1054L12.331 23.0275L12.3811 22.9467L12.4276 22.864L12.4716 22.776L12.5115 22.6861L12.548 22.592L12.5813 22.4955L12.6111 22.3971L12.6368 22.296L12.6606 22.1918L12.6798 22.0849L12.6956 21.9775L12.7077 21.8668L12.7164 21.7552L12.7216 21.6422L12.7241 21.5267L12.7201 21.4092L12.7143 21.291L12.7054 21.1723L12.6908 21.052L12.6724 20.9322L12.1849 21.0106Z" fill="#0651A7"/>
<path fill-rule="evenodd" clip-rule="evenodd" d="M10.7385 19.2424L10.7901 19.2364L10.8417 19.2342L10.893 19.2363L10.9448 19.2421L10.9967 19.2527L11.0496 19.2673L11.1021 19.2858L11.1567 19.3087L11.2111 19.3349L11.2651 19.3678L11.3194 19.403L11.3739 19.4434L11.4284 19.4876L11.4817 19.5366L11.5351 19.5899L11.5865 19.6458L11.6376 19.7069L11.6879 19.772L11.7371 19.84L11.7831 19.9126L11.8295 19.9876L11.8728 20.0673L11.9144 20.149L11.955 20.2342L11.9928 20.3226L12.0286 20.4137L12.0609 20.5066L12.0917 20.6026L12.1186 20.7019L12.1444 20.8027L12.1657 20.9056L12.185 21.0107L12.6725 20.9322L12.6511 20.8114L12.6254 20.6935L12.5976 20.5773L12.5649 20.4632L12.5302 20.3522L12.4914 20.2422L12.4504 20.1368L12.4064 20.0336L12.3604 19.9331L12.3104 19.835L12.2573 19.7411L12.203 19.6497L12.1452 19.563L12.0857 19.4785L12.0235 19.398L11.9589 19.3212L11.891 19.2472L11.8224 19.179L11.7514 19.1144L11.6786 19.0533L11.6028 18.9983L11.5251 18.9469L11.4453 18.9014L11.3642 18.8594L11.2811 18.8242L11.1951 18.7951L11.1079 18.7714L11.0197 18.7544L10.9305 18.7437L10.8404 18.7406L10.7497 18.7438L10.6597 18.7554L10.7385 19.2424Z" fill="#0651A7"/>
<path fill-rule="evenodd" clip-rule="evenodd" d="M9.93493 21.3821L9.92008 21.2746L9.90797 21.17L9.89883 21.0664L9.89319 20.9643L9.89203 20.8639L9.89297 20.7651L9.89729 20.6668L9.90476 20.5709L9.91544 20.4779L9.92823 20.3865L9.94517 20.2978L9.9634 20.2119L9.98577 20.1286L10.0099 20.048L10.0363 19.9703L10.0656 19.8961L10.0968 19.8258L10.1293 19.7587L10.1647 19.6949L10.202 19.6352L10.241 19.5804L10.2803 19.5284L10.3221 19.4808L10.365 19.4382L10.4083 19.3989L10.4533 19.3646L10.4978 19.3341L10.5448 19.3075L10.5914 19.2852L10.6396 19.2679L10.6886 19.2533L10.7386 19.2424L10.6597 18.7554L10.5697 18.7736L10.4829 18.7989L10.398 18.8315L10.3163 18.8698L10.2391 18.9141L10.1637 18.9643L10.0923 19.0197L10.0248 19.0797L9.96037 19.145L9.9002 19.2139L9.84245 19.2868L9.78915 19.3647L9.73948 19.445L9.69261 19.5287L9.64862 19.6162L9.60884 19.707L9.57274 19.8006L9.53881 19.8962L9.50954 19.995L9.48343 20.0962L9.45967 20.2009L9.44133 20.3072L9.42462 20.4152L9.41292 20.5253L9.40385 20.6375L9.39874 20.751L9.39666 20.8659L9.40011 20.9835L9.40595 21.1012L9.41528 21.2203L9.42897 21.3403L9.44788 21.4605L9.93493 21.3821Z" fill="#0651A7"/>
<path fill-rule="evenodd" clip-rule="evenodd" d="M11.3819 23.1494L11.3302 23.1544L11.2787 23.158L11.2274 23.1554L11.1757 23.1501L11.1237 23.1391L11.0709 23.1254L11.0183 23.1065L10.9637 23.0831L10.9096 23.0563L10.8554 23.0249L10.8011 22.9892L10.747 22.9488L10.692 22.9047L10.6387 22.8556L10.5854 22.8023L10.534 22.7464L10.4833 22.6852L10.4327 22.6207L10.3838 22.5522L10.3373 22.4796L10.2909 22.4046L10.2477 22.325L10.2051 22.2433L10.1654 22.158L10.1272 22.0701L10.0918 21.9786L10.0596 21.8856L10.0288 21.7897L10.0019 21.6909L9.97611 21.59L9.95473 21.4866L9.93508 21.3821L9.44803 21.4605L9.46932 21.5808L9.49507 21.6992L9.52289 21.8154L9.55562 21.9295L9.5903 22.0405L9.62903 22.15L9.67011 22.2559L9.71412 22.3591L9.76147 22.4589L9.81003 22.5572L9.86313 22.6507L9.91743 22.7426L9.97581 22.8296L10.0348 22.9138L10.097 22.9947L10.1615 23.071L10.229 23.1446L10.2981 23.2132L10.3695 23.2778L10.4418 23.3384L10.5178 23.3944L10.5955 23.4458L10.6752 23.4918L10.7567 23.5323L10.8398 23.568L10.9254 23.5976L11.0126 23.6208L11.1007 23.6378L11.19 23.6486L11.2805 23.6515L11.3708 23.6489L11.4608 23.6369L11.3819 23.1494Z" fill="#0651A7"/>
<path fill-rule="evenodd" clip-rule="evenodd" d="M11.3195 23.1632C11.8355 23.0715 12.1424 22.3705 12.0053 21.5963C11.8677 20.8217 11.3377 20.2685 10.8222 20.3602C10.3067 20.4513 9.99894 21.1538 10.1364 21.9275C10.2736 22.7018 10.8026 23.255 11.3195 23.1632Z" fill="#0651A7"/>
</g>
</g>
<defs>
<clipPath id="clip0_12809_42155">
<path d="M0.699707 4C0.699707 1.79086 2.49057 0 4.69971 0H50.6997C52.9088 0 54.6997 1.79086 54.6997 4V50C54.6997 52.2091 52.9088 54 50.6997 54H4.69971C2.49057 54 0.699707 52.2091 0.699707 50V4Z" fill="white"/>
</clipPath>
<clipPath id="clip1_12809_42155">
<rect width="50.225" height="49" fill="white" transform="translate(0.699707 5)"/>
</clipPath>
</defs>
</svg>
