<svg width="55" height="54" viewBox="0 0 55 54" fill="none" xmlns="http://www.w3.org/2000/svg">
<path d="M0.699707 4C0.699707 1.79086 2.49057 0 4.69971 0H50.6997C52.9088 0 54.6997 1.79086 54.6997 4V50C54.6997 52.2091 52.9088 54 50.6997 54H4.69971C2.49057 54 0.699707 52.2091 0.699707 50V4Z" fill="#E0EB65"/>
<mask id="path-2-inside-1_12809_42202" fill="white">
<path fill-rule="evenodd" clip-rule="evenodd" d="M23.9938 49.2352C33.5451 49.2352 41.2879 41.4924 41.2879 31.9411C41.2879 22.3898 33.5451 14.647 23.9938 14.647C14.4425 14.647 6.69971 22.3898 6.69971 31.9411C6.69971 41.4924 14.4425 49.2352 23.9938 49.2352ZM23.9938 41.8234C29.4517 41.8234 33.8762 37.399 33.8762 31.9411C33.8762 26.4832 29.4517 22.0587 23.9938 22.0587C18.536 22.0587 14.1115 26.4832 14.1115 31.9411C14.1115 37.399 18.536 41.8234 23.9938 41.8234Z"/>
</mask>
<path fill-rule="evenodd" clip-rule="evenodd" d="M23.9938 49.2352C33.5451 49.2352 41.2879 41.4924 41.2879 31.9411C41.2879 22.3898 33.5451 14.647 23.9938 14.647C14.4425 14.647 6.69971 22.3898 6.69971 31.9411C6.69971 41.4924 14.4425 49.2352 23.9938 49.2352ZM23.9938 41.8234C29.4517 41.8234 33.8762 37.399 33.8762 31.9411C33.8762 26.4832 29.4517 22.0587 23.9938 22.0587C18.536 22.0587 14.1115 26.4832 14.1115 31.9411C14.1115 37.399 18.536 41.8234 23.9938 41.8234Z" fill="white"/>
<path d="M39.5585 31.9411C39.5585 40.5372 32.59 47.5058 23.9938 47.5058V50.9646C34.5002 50.9646 43.0174 42.4475 43.0174 31.9411H39.5585ZM23.9938 16.3764C32.59 16.3764 39.5585 23.3449 39.5585 31.9411H43.0174C43.0174 21.4347 34.5002 12.9176 23.9938 12.9176V16.3764ZM8.42912 31.9411C8.42912 23.3449 15.3977 16.3764 23.9938 16.3764V12.9176C13.4874 12.9176 4.9703 21.4347 4.9703 31.9411H8.42912ZM23.9938 47.5058C15.3977 47.5058 8.42912 40.5372 8.42912 31.9411H4.9703C4.9703 42.4475 13.4874 50.9646 23.9938 50.9646V47.5058ZM32.1468 31.9411C32.1468 36.4438 28.4966 40.094 23.9938 40.094V43.5529C30.4068 43.5529 35.6056 38.3541 35.6056 31.9411H32.1468ZM23.9938 23.7881C28.4966 23.7881 32.1468 27.4383 32.1468 31.9411H35.6056C35.6056 25.5281 30.4068 20.3293 23.9938 20.3293V23.7881ZM15.8409 31.9411C15.8409 27.4383 19.4911 23.7881 23.9938 23.7881V20.3293C17.5808 20.3293 12.3821 25.5281 12.3821 31.9411H15.8409ZM23.9938 40.094C19.4911 40.094 15.8409 36.4438 15.8409 31.9411H12.3821C12.3821 38.3541 17.5808 43.5529 23.9938 43.5529V40.094Z" fill="#0651A7" mask="url(#path-2-inside-1_12809_42202)"/>
<path fill-rule="evenodd" clip-rule="evenodd" d="M23.9937 41.8235C29.4516 41.8235 33.876 37.3991 33.876 31.9412C33.876 26.4833 29.4516 22.0588 23.9937 22.0588C18.5358 22.0588 14.1113 26.4833 14.1113 31.9412C14.1113 37.3991 18.5358 41.8235 23.9937 41.8235ZM23.9936 40.5882C28.7692 40.5882 32.6406 36.7168 32.6406 31.9412C32.6406 27.1655 28.7692 23.2941 23.9936 23.2941C19.2179 23.2941 15.3465 27.1655 15.3465 31.9412C15.3465 36.7168 19.2179 40.5882 23.9936 40.5882Z" fill="#0651A7"/>
<circle cx="36.9644" cy="16.5001" r="8.39273" fill="white" stroke="#0651A7" stroke-width="1.74394"/>
<path d="M36.9644 11.05V16.4999L40.2343 19.7698" stroke="#0651A7" stroke-width="1.74394"/>
</svg>
