<svg width="55" height="54" viewBox="0 0 55 54" fill="none" xmlns="http://www.w3.org/2000/svg">
<g clip-path="url(#clip0_12809_42218)">
<path d="M0.699707 4C0.699707 1.79086 2.49057 0 4.69971 0H50.6997C52.9088 0 54.6997 1.79086 54.6997 4V50C54.6997 52.2091 52.9088 54 50.6997 54H4.69971C2.49057 54 0.699707 52.2091 0.699707 50V4Z" fill="#E0EB65"/>
<path d="M48.6409 39.5145H44.5356C44.1808 38.0954 42.7415 35.2572 39.8222 35.2572C36.9029 35.2572 36.0717 38.0954 36.021 39.5145H17.8821C17.4766 38.0954 15.9967 35.2572 13.3207 35.2572C10.6447 35.2572 9.16476 38.0954 8.7593 39.5145H5.23152L3.8631 37.6899V33.4326L6.1438 31.9121H37.6935V20.0525L38.9099 18.38H44.0795L46.3602 19.4443L50.0093 28.263V37.3858L48.6409 39.5145Z" fill="white"/>
<path d="M34.5195 28.4151H31.7827C31.7827 27.3 31.1441 25.07 28.5897 25.07C26.0353 25.07 26.0049 27.3 26.309 28.4151H14.6204C14.4177 27.3507 13.5561 25.2221 11.7315 25.2221C9.90696 25.2221 9.04536 27.3507 8.84263 28.4151L3.97714 27.0466L3.521 25.2221L4.28123 23.5496L5.19351 21.4209H7.47421C9.29877 20.5593 12.9783 18.8361 13.0999 18.8361C13.2216 18.8361 14.9055 18.2279 16.2739 17.9238L20.0751 19.1402L24.1804 22.0291L31.3265 22.4852L34.6716 24.0057L35.1277 27.0466L34.5195 28.4151Z" fill="white"/>
<path d="M25.4977 29.631H15.1261C14.5485 29.631 14.1635 29.2661 14.1635 28.7187C14.1635 28.1714 14.5485 27.8064 15.1261 27.8064H25.4977C26.0752 27.8064 26.4603 28.1714 26.4603 28.7187C26.4603 29.2661 26.0752 29.631 25.4977 29.631Z" fill="#0651A7"/>
<path d="M8.66844 29.0494C8.58719 29.0494 8.50594 29.0494 8.42469 28.9681L4.19565 28.0744C3.54565 27.8306 2.9769 27.1806 2.89565 26.5306V26.4494L2.8144 25.4744C2.73315 24.7431 2.9769 24.0931 3.6269 23.6056L3.70815 23.5244C3.70815 23.4431 3.70815 23.3619 3.70815 23.3619L3.9519 22.3056C4.03315 21.4119 4.9269 20.6806 5.98315 20.6806H7.2019C8.42065 20.1119 9.39565 19.7056 10.2081 19.2994C12.4831 18.1619 13.9456 17.5119 16.7081 17.3494C20.2019 16.9431 20.6623 18.2431 23.3436 20.4369L24.0748 21.0869C24.2373 21.1681 24.2373 21.1681 24.2373 21.1681H24.3998C28.5436 20.9244 32.0373 21.4931 34.8811 23.0369C35.5311 23.4431 35.9373 24.0931 35.9373 24.8244V27.0994C35.9373 28.2369 35.0436 29.1306 33.9061 29.1306H31.9335C31.446 29.1306 31.121 28.8056 31.121 28.3181C31.121 27.8306 31.446 27.5056 31.9335 27.5056H33.8248C34.1498 27.5056 34.2311 27.2619 34.2311 27.0994V24.8244C34.2311 24.7431 34.1498 24.5806 33.9873 24.4994C31.3873 23.1181 28.2998 22.5494 24.4811 22.7931C23.9936 22.8744 23.5061 22.7931 23.0186 22.3869L22.2061 21.7369C19.6873 19.6244 19.6331 18.7306 16.7894 19.0556C14.2706 19.1369 13.0519 19.7869 10.8581 20.8431C10.0456 21.2494 9.07065 21.7369 7.77065 22.2244C7.44565 22.3869 7.2019 22.3869 6.95815 22.3869H5.9019C5.7394 22.3869 5.49565 22.5494 5.49565 22.6306L5.2519 23.6869C5.2519 24.2556 4.9269 24.6619 4.52065 24.9869C4.4394 25.0681 4.35815 25.1494 4.35815 25.3119V25.3931L4.4394 26.2869C4.52065 26.4494 4.6019 26.6119 4.7644 26.6119L8.99344 27.5056C9.39969 27.6681 9.64344 28.1556 9.48094 28.5619C9.31844 28.8869 8.99344 29.0494 8.66844 29.0494Z" fill="#0651A7"/>
<path d="M28.9498 31.1619C26.9998 31.1619 25.4561 29.6181 25.4561 27.6681C25.4561 25.7181 26.9998 24.1744 28.9498 24.1744C30.8998 24.1744 32.4436 25.7181 32.4436 27.6681C32.4436 29.6181 30.8998 31.1619 28.9498 31.1619ZM28.9498 25.7994C27.8936 25.7994 27.0811 26.6119 27.0811 27.6681C27.0811 28.7244 27.8936 29.5369 28.9498 29.5369C30.0061 29.5369 30.8186 28.7244 30.8186 27.6681C30.8186 26.6119 30.0061 25.7994 28.9498 25.7994Z" fill="#0651A7"/>
<path d="M11.6706 31.1619C9.72064 31.1619 8.1769 29.6181 8.1769 27.6681C8.1769 25.7181 9.72064 24.1744 11.6706 24.1744C13.6206 24.1744 15.1644 25.7181 15.1644 27.6681C15.1644 29.6181 13.6206 31.1619 11.6706 31.1619ZM11.6706 25.7994C10.6144 25.7994 9.8019 26.6119 9.8019 27.6681C9.8019 28.7244 10.6144 29.5369 11.6706 29.5369C12.7269 29.5369 13.5394 28.7244 13.5394 27.6681C13.5394 26.6119 12.7269 25.7994 11.6706 25.7994Z" fill="#0651A7"/>
<path d="M36.0556 40.3431H18.7836C18.2009 40.3431 17.8124 40.0181 17.8124 39.5306C17.8124 39.0431 18.2009 38.7181 18.7836 38.7181H36.0556C35.555 38.7181 35.9435 39.0431 35.9435 39.5306C35.9435 40.0181 35.555 40.3431 36.0556 40.3431Z" fill="#0651A7"/>
<path d="M8.48527 40.3431H6.11856C4.33106 40.3431 2.94981 38.8806 2.94981 37.1744V34.6556C2.94981 32.8681 4.41231 31.4056 6.19981 31.4056H36.7227V20.8431C36.7227 19.0556 38.1852 17.5931 39.9727 17.5931H43.7915C45.4165 17.5931 46.7977 18.5681 47.4477 20.0306L47.9352 21.1681L50.3727 27.0994C50.5352 27.3431 50.5352 27.6681 50.6165 27.8306C50.6165 27.9119 50.6165 27.9931 50.6977 27.9931C50.6977 28.0744 50.779 28.1556 50.779 28.2369V37.0119C50.779 38.7994 49.3977 40.1806 47.6102 40.1806H45.1428C44.6553 40.1806 44.3303 39.8556 44.3303 39.3681C44.3303 38.8806 44.6553 38.5556 45.1428 38.5556H47.6102C48.4227 38.5556 49.154 37.8244 49.154 37.0119V28.3994C49.154 28.3181 49.154 28.2369 49.0727 28.1556C49.0727 27.9931 48.9915 27.9119 48.9915 27.7494L46.0665 20.5994C45.6602 19.7056 44.8477 19.1369 43.8727 19.1369H40.054C39.1602 19.1369 38.429 19.8681 38.429 20.7619V32.1369C38.429 32.6244 38.104 32.9494 37.6165 32.9494H6.19981C5.30606 32.9494 4.57481 33.6806 4.57481 34.5744V37.0931C4.57481 37.9056 5.30606 38.6369 6.11856 38.6369H8.48527C8.97277 38.6369 9.29777 38.9619 9.29777 39.4494C9.29777 39.9369 8.97277 40.3431 8.48527 40.3431Z" fill="#0651A7"/>
<path d="M48.504 36.0369H48.4227C47.3665 36.0369 46.3915 35.6306 45.6602 34.8994C45.0915 34.3306 44.929 33.4369 45.254 32.6244C45.579 31.8119 46.3915 31.3244 47.204 31.3244H48.504C49.7227 31.3244 50.6165 32.2181 50.6165 33.4369V33.9244C50.6165 35.1431 49.7227 36.0369 48.504 36.0369ZM47.204 32.9494C46.9602 32.9494 46.7977 33.1119 46.7165 33.2744C46.6352 33.4369 46.6352 33.5994 46.7977 33.7619C47.204 34.1681 47.854 34.4119 48.4227 34.4119H48.504C48.7477 34.4119 48.9915 34.1681 48.9915 33.9244V33.4369C48.9915 33.1931 48.7477 32.9494 48.504 32.9494H47.204Z" fill="#0651A7"/>
<path d="M40.2165 44.6494C37.3727 44.6494 35.0977 42.3744 35.0977 39.5306C35.0977 36.6869 37.3727 34.4119 40.2165 34.4119C43.0602 34.4119 45.3352 36.6869 45.3352 39.5306C45.3352 42.3744 43.0602 44.6494 40.2165 44.6494ZM40.2165 36.0369C38.3477 36.0369 36.7227 37.6619 36.7227 39.5306C36.7227 41.3994 38.3477 43.0244 40.2165 43.0244C42.0852 43.0244 43.7102 41.3994 43.7102 39.5306C43.7102 37.4994 42.2477 36.0369 40.2165 36.0369Z" fill="#0651A7"/>
<path d="M13.4581 44.6494C10.6144 44.6494 8.3394 42.3744 8.3394 39.5306C8.3394 36.6869 10.6144 34.4119 13.4581 34.4119C16.3019 34.4119 18.5769 36.6869 18.5769 39.5306C18.5769 42.3744 16.3019 44.6494 13.4581 44.6494ZM13.4581 36.0369C11.5894 36.0369 9.9644 37.6619 9.9644 39.5306C9.9644 41.3994 11.5894 43.0244 13.4581 43.0244C15.3269 43.0244 16.9519 41.3994 16.9519 39.5306C16.9519 37.5806 15.4081 36.0369 13.4581 36.0369Z" fill="#0651A7"/>
</g>
<defs>
<clipPath id="clip0_12809_42218">
<path d="M0.699707 4C0.699707 1.79086 2.49057 0 4.69971 0H50.6997C52.9088 0 54.6997 1.79086 54.6997 4V50C54.6997 52.2091 52.9088 54 50.6997 54H4.69971C2.49057 54 0.699707 52.2091 0.699707 50V4Z" fill="white"/>
</clipPath>
</defs>
</svg>
