<svg width="32" height="32" viewBox="0 0 32 32" fill="none" xmlns="http://www.w3.org/2000/svg">
<path d="M14.9032 4.7C15.3907 3.85556 16.6096 3.85556 17.0971 4.7L28.6441 24.7C29.1317 25.5444 28.5222 26.6 27.5472 26.6H4.45316C3.47808 26.6 2.86865 25.5444 3.35619 24.7L14.9032 4.7Z" stroke="#D52020" stroke-width="2.8"/>
<path d="M12.2002 16.6666C12.2002 16.188 11.8121 15.8 11.3335 15.8C10.8548 15.8 10.4668 16.188 10.4668 16.6666H12.2002ZM11.3335 22H10.4668C10.4668 22.4786 10.8548 22.8666 11.3335 22.8666V22ZM20.6668 22V22.8666C21.1455 22.8666 21.5335 22.4786 21.5335 22H20.6668ZM21.5335 16.6666C21.5335 16.188 21.1455 15.8 20.6668 15.8C20.1882 15.8 19.8002 16.188 19.8002 16.6666H21.5335ZM16.8668 16.6666C16.8668 16.188 16.4788 15.8 16.0002 15.8C15.5215 15.8 15.1335 16.188 15.1335 16.6666H16.8668ZM10.4668 16.6666V22H12.2002V16.6666H10.4668ZM21.5335 22V16.6666H19.8002V22H21.5335ZM11.3335 22.8666H16.0002V21.1333H11.3335V22.8666ZM16.0002 22.8666H20.6668V21.1333H16.0002V22.8666ZM15.1335 16.6666V22H16.8668V16.6666H15.1335Z" fill="black"/>
</svg>
