<svg width="30" height="30" viewBox="0 0 30 30" fill="none" xmlns="http://www.w3.org/2000/svg">
<path d="M11.6668 3.33331H5.00016C4.55814 3.33331 4.13421 3.50891 3.82165 3.82147C3.50909 4.13403 3.3335 4.55795 3.3335 4.99998V11.6666C3.3335 12.1087 3.50909 12.5326 3.82165 12.8452C4.13421 13.1577 4.55814 13.3333 5.00016 13.3333H11.6668C12.1089 13.3333 12.5328 13.1577 12.8453 12.8452C13.1579 12.5326 13.3335 12.1087 13.3335 11.6666V4.99998C13.3335 4.55795 13.1579 4.13403 12.8453 3.82147C12.5328 3.50891 12.1089 3.33331 11.6668 3.33331ZM5.00016 11.6666V4.99998H11.6668V11.6666H5.00016Z" fill="#0E8ECF"/>
<path d="M24.9998 3.33331H18.3332C17.8911 3.33331 17.4672 3.50891 17.1547 3.82147C16.8421 4.13403 16.6665 4.55795 16.6665 4.99998V11.6666C16.6665 12.1087 16.8421 12.5326 17.1547 12.8452C17.4672 13.1577 17.8911 13.3333 18.3332 13.3333H24.9998C25.4419 13.3333 25.8658 13.1577 26.1783 12.8452C26.4909 12.5326 26.6665 12.1087 26.6665 11.6666V4.99998C26.6665 4.55795 26.4909 4.13403 26.1783 3.82147C25.8658 3.50891 25.4419 3.33331 24.9998 3.33331ZM18.3332 11.6666V4.99998H24.9998V11.6666H18.3332Z" fill="#0E8ECF"/>
<path d="M11.6668 16.6667H5.00016C4.55814 16.6667 4.13421 16.8423 3.82165 17.1548C3.50909 17.4674 3.3335 17.8913 3.3335 18.3334V25C3.3335 25.442 3.50909 25.866 3.82165 26.1785C4.13421 26.4911 4.55814 26.6667 5.00016 26.6667H11.6668C12.1089 26.6667 12.5328 26.4911 12.8453 26.1785C13.1579 25.866 13.3335 25.442 13.3335 25V18.3334C13.3335 17.8913 13.1579 17.4674 12.8453 17.1548C12.5328 16.8423 12.1089 16.6667 11.6668 16.6667ZM5.00016 25V18.3334H11.6668V25H5.00016Z" fill="#0E8ECF"/>
<path d="M24.9998 16.6667H18.3332C17.8911 16.6667 17.4672 16.8423 17.1547 17.1548C16.8421 17.4674 16.6665 17.8913 16.6665 18.3334V25C16.6665 25.442 16.8421 25.866 17.1547 26.1785C17.4672 26.4911 17.8911 26.6667 18.3332 26.6667H24.9998C25.4419 26.6667 25.8658 26.4911 26.1783 26.1785C26.4909 25.866 26.6665 25.442 26.6665 25V18.3334C26.6665 17.8913 26.4909 17.4674 26.1783 17.1548C25.8658 16.8423 25.4419 16.6667 24.9998 16.6667ZM18.3332 25V18.3334H24.9998V25H18.3332Z" fill="#0E8ECF"/>
</svg>
