<svg width="24" height="24" viewBox="0 0 24 24" fill="none" xmlns="http://www.w3.org/2000/svg">
<path fill-rule="evenodd" clip-rule="evenodd" d="M12 7.17387C9.33458 7.17387 7.17387 9.33458 7.17387 12C7.17387 14.6653 9.33458 16.826 12 16.826C14.6653 16.826 16.826 14.6653 16.826 12C16.826 9.33458 14.6653 7.17387 12 7.17387ZM5.08691 12C5.08691 8.18199 8.18199 5.08691 12 5.08691C15.8179 5.08691 18.913 8.18199 18.913 12C18.913 15.8179 15.8179 18.913 12 18.913C8.18199 18.913 5.08691 15.8179 5.08691 12Z" fill="#FF4343"/>
<path fill-rule="evenodd" clip-rule="evenodd" d="M12 0C12.5763 0 13.0435 0.467181 13.0435 1.04348V3C13.0435 3.5763 12.5763 4.04348 12 4.04348C11.4237 4.04348 10.9565 3.5763 10.9565 3V1.04348C10.9565 0.467181 11.4237 0 12 0Z" fill="#FF4343"/>
<path fill-rule="evenodd" clip-rule="evenodd" d="M3.51461 3.5148C3.92212 3.10729 4.58281 3.10729 4.99031 3.5148L6.37378 4.89827C6.78129 5.30577 6.78129 5.96646 6.37378 6.37397C5.96628 6.78147 5.30559 6.78147 4.89808 6.37397L3.51461 4.9905C3.10711 4.58299 3.10711 3.9223 3.51461 3.5148Z" fill="#FF4343"/>
<path fill-rule="evenodd" clip-rule="evenodd" d="M0 12C0 11.4237 0.467181 10.9565 1.04348 10.9565H3C3.5763 10.9565 4.04348 11.4237 4.04348 12C4.04348 12.5763 3.5763 13.0434 3 13.0434H1.04348C0.467181 13.0434 0 12.5763 0 12Z" fill="#FF4343"/>
<path fill-rule="evenodd" clip-rule="evenodd" d="M6.37378 17.6261C6.78129 18.0336 6.78129 18.6943 6.37378 19.1018L4.99031 20.4852C4.58281 20.8927 3.92212 20.8927 3.51461 20.4852C3.10711 20.0777 3.10711 19.417 3.51461 19.0095L4.89808 17.6261C5.30559 17.2186 5.96628 17.2186 6.37378 17.6261Z" fill="#FF4343"/>
<path fill-rule="evenodd" clip-rule="evenodd" d="M12 19.9565C12.5763 19.9565 13.0435 20.4237 13.0435 21V22.9565C13.0435 23.5328 12.5763 24 12 24C11.4237 24 10.9565 23.5328 10.9565 22.9565V21C10.9565 20.4237 11.4237 19.9565 12 19.9565Z" fill="#FF4343"/>
<path fill-rule="evenodd" clip-rule="evenodd" d="M17.6259 17.6261C18.0334 17.2186 18.6941 17.2186 19.1016 17.6261L20.4851 19.0095C20.8926 19.417 20.8926 20.0777 20.4851 20.4852C20.0776 20.8927 19.4169 20.8927 19.0094 20.4852L17.6259 19.1018C17.2184 18.6943 17.2184 18.0336 17.6259 17.6261Z" fill="#FF4343"/>
<path fill-rule="evenodd" clip-rule="evenodd" d="M19.9565 12C19.9565 11.4237 20.4237 10.9565 21 10.9565H22.9565C23.5328 10.9565 24 11.4237 24 12C24 12.5763 23.5328 13.0434 22.9565 13.0434H21C20.4237 13.0434 19.9565 12.5763 19.9565 12Z" fill="#FF4343"/>
<path fill-rule="evenodd" clip-rule="evenodd" d="M20.4851 3.5148C20.8926 3.9223 20.8926 4.58299 20.4851 4.9905L19.1016 6.37397C18.6941 6.78147 18.0334 6.78147 17.6259 6.37397C17.2184 5.96646 17.2184 5.30577 17.6259 4.89827L19.0094 3.5148C19.4169 3.10729 20.0776 3.10729 20.4851 3.5148Z" fill="#FF4343"/>
</svg>
