<svg width="49" height="48" viewBox="0 0 49 48" fill="none" xmlns="http://www.w3.org/2000/svg">
<circle cx="24.6665" cy="24" r="24" fill="#4680C2"/>
<path fill-rule="evenodd" clip-rule="evenodd" d="M37.9841 17.1797C38.199 16.5143 37.9841 16.0303 37.032 16.0303H33.8685C33.07 16.0303 32.7014 16.4537 32.4864 16.9075C32.4864 16.9075 30.8586 20.7794 28.5858 23.29C27.8487 24.016 27.5108 24.258 27.1116 24.258C26.8966 24.258 26.6202 24.016 26.6202 23.3506V17.1494C26.6202 16.363 26.3745 16 25.6988 16H20.7233C20.2318 16 19.9247 16.363 19.9247 16.726C19.9247 17.4823 21.0611 17.6637 21.1839 19.7811V24.379C21.1839 25.3773 20.9997 25.5587 20.6004 25.5587C19.5254 25.5587 16.9148 21.6566 15.3485 17.21C15.0413 16.3327 14.7342 16 13.9357 16H10.7415C9.82008 16 9.6665 16.4235 9.6665 16.8773C9.6665 17.694 10.7415 21.8078 14.6727 27.2527C17.2834 30.9733 20.9997 32.9697 24.3474 32.9697C26.3745 32.9697 26.6202 32.516 26.6202 31.7598V28.9467C26.6202 28.0391 26.8044 27.888 27.4495 27.888C27.9101 27.888 28.7394 28.1299 30.6129 29.9146C32.7628 32.032 33.1313 33 34.3292 33H37.4926C38.414 33 38.8441 32.5463 38.5983 31.669C38.3219 30.7918 37.2777 29.5214 35.9263 28.0089C35.1891 27.162 34.0834 26.2243 33.7456 25.7704C33.2849 25.1655 33.4078 24.9235 33.7456 24.379C33.715 24.379 37.5848 18.9947 37.9841 17.1797Z" fill="white"/>
</svg>
